<svg width="499" height="447" viewBox="0 0 499 447" fill="none" xmlns="http://www.w3.org/2000/svg">
<g opacity="0.63">
<path d="M312.791 166.243L438.237 239.003C471.772 258.454 471.215 293.24 436.993 316.634L308.979 404.142C274.758 427.536 219.744 430.737 186.209 411.287L60.7632 338.527C27.228 319.076 27.7854 284.29 62.0071 260.896L190.021 173.387C224.242 149.994 279.256 146.793 312.791 166.243Z" fill="url(#paint0_radial_403_5154)"/>
</g>
<path d="M376.542 74.0222C389.785 84.9284 402.783 96.0961 415.64 107.398C417.671 109.183 420.714 110.819 421.166 113.249C421.45 114.78 417.841 112.292 416.381 111.387C380.981 89.4447 345.995 66.8657 310.693 44.7717C308.476 43.3843 306.19 42.0944 303.839 40.9523C301.044 39.5956 297.817 39.0807 295.285 37.29C279.067 25.8215 263.723 13.2642 247.851 1.36042C246.973 0.701914 249.334 2.9997 250.29 3.54426C291.592 27.079 333.029 50.3788 374.537 73.5497C375.145 73.8886 376.007 73.5824 376.542 74.0222Z" fill="#004040"/>
<path d="M247.996 150.304C247.996 150.304 368.701 80.5858 376.71 75.9541C376.797 87.1261 378.071 203.376 378.146 211.309C378.239 220.916 374.162 228.029 365.784 232.826C351.226 241.162 281.757 281.479 261.537 293.22C257.448 295.595 253.27 297.617 248.342 297.16C248.219 250.124 247.996 150.304 247.996 150.304Z" fill="#008080"/>
<path d="M247.996 150.303C247.996 150.303 248.219 250.124 248.342 297.16C244.012 297.399 240.12 296.035 236.435 293.924C206.203 276.607 135.682 236.169 130.616 233.334C122.198 228.624 118.158 221.54 118.193 211.861C118.261 192.827 117.911 95.5157 117.846 76.4785C126.336 81.2773 247.996 150.303 247.996 150.303Z" fill="#008080"/>
<path d="M375.947 74.7587C363.795 67.7737 351.633 60.7984 339.456 53.8521C329.519 48.1845 284.621 23.0049 260.833 9.67175C256.003 6.96624 248.594 3.04471 246.864 2.31593C244.507 3.34271 235.549 7.41583 231.2 9.96746C202.875 26.5938 122.102 73.1152 118.592 76.5873C127.381 81.6968 211.965 130.276 245.416 149.548C247.442 150.715 248.818 150.447 250.653 149.381C284.257 129.847 317.903 110.394 351.506 90.8575C360.019 85.9074 368.736 81.2934 376.957 75.849C376.625 75.4804 376.359 74.9956 375.947 74.7587Z" fill="#D9DFE6"/>
<path d="M247.289 2.34027L247.992 150.3C248.873 150.279 249.72 149.948 250.693 149.381C284.296 129.849 368.776 81.2935 376.998 75.8491C376.664 75.4805 376.398 74.9958 375.987 74.7589C363.833 67.7739 284.659 23.0069 260.871 9.67189C256.746 7.36113 251.472 4.87908 247.289 2.34027Z" fill="#9AB0C4"/>
<path d="M171.614 242.352L133.624 220.768C131.206 219.393 129.71 216.833 129.704 214.054L129.65 191.586C129.635 185.635 136.07 181.889 141.252 184.835L179.24 206.421C181.659 207.796 183.156 210.357 183.162 213.134L183.217 235.6C183.231 241.553 176.796 245.297 171.614 242.352Z" fill="white"/>
<path d="M376.853 75.9051C391.722 98.5722 406.236 121.492 419.8 144.961C420.969 146.983 421.219 149.598 420.797 151.934C420.391 154.178 419.424 156.763 417.441 157.996C380.485 180.975 342.836 202.86 304.822 224.046C302.797 225.174 300.166 225.085 297.945 224.595C295.798 224.122 293.537 223.073 292.329 221.291C276.905 198.567 262.123 175.382 248.4 151.597C247.872 150.68 249.879 149.923 250.827 149.36C292.05 124.854 333.411 100.578 374.845 76.4287C375.444 76.0796 376.488 75.3479 376.853 75.9051Z" fill="#004040"/>
<path d="M247.137 1.54525C231.393 9.91051 215.813 18.5959 200.182 27.1824C196.97 28.9467 193.813 30.8127 190.612 32.5975C188.182 33.9524 185.691 35.1971 183.289 36.6032C145.594 58.6743 107.817 80.6142 70.3247 103.025C69.969 103.238 70.4856 103.677 70.5066 104.019C70.5313 104.418 70.0471 105.482 70.4631 105.236C86.3099 95.8843 101.671 85.7484 117.463 76.3065C118.42 75.7346 119.632 75.8153 120.599 75.2619C162.397 51.3672 204.069 27.2505 245.671 3.01437C246.28 2.65948 247.76 1.21463 247.137 1.54525Z" fill="#004040"/>
<path d="M116.94 77.5264C103.291 100.576 90.7064 124.039 78.0326 147.46C77.0243 149.324 75.783 151.24 75.9136 153.344C76.0301 155.213 76.6411 157.537 78.7367 158.804C116.222 181.486 154.644 203.294 193.56 224.53C195.697 225.695 198.652 225.791 201.08 225.563C203.618 225.325 206.714 224.841 207.771 223.197C222.503 200.278 235.458 176.621 247.854 152.796C248.25 152.036 246.472 151.248 245.499 150.684C203.517 126.345 161.35 102.191 119.083 78.1388C118.464 77.787 117.218 77.0561 116.94 77.5264Z" fill="#004040"/>
<defs>
<radialGradient id="paint0_radial_403_5154" cx="0" cy="0" r="1" gradientUnits="userSpaceOnUse" gradientTransform="translate(250.541 289.079) rotate(-34.3561) scale(137.035 115.644)">
<stop stop-opacity="0.39"/>
<stop offset="0.95" stop-color="#20272C" stop-opacity="0.195"/>
<stop offset="1" stop-opacity="0"/>
</radialGradient>
</defs>
</svg>
