<svg width="2278" height="2000" viewBox="0 0 2278 2000" fill="none" xmlns="http://www.w3.org/2000/svg">
<g clip-path="url(#clip0_1169_1776)">
<path d="M613.375 1616.06C613.375 1616.06 328.436 1475.57 279.433 1402.29C230.431 1329.02 302.464 1324.86 302.464 1324.86C302.464 1324.86 175.308 1201.2 193.198 1149.13C211.088 1097.07 276.958 1144.82 276.958 1144.82C276.958 1144.82 195.197 962.818 233.748 944.522C305.554 910.443 406.287 1106.27 406.287 1106.27C406.287 1106.27 384.639 1021.2 434.085 1023.96C508.655 1028.13 505.574 1220.56 505.574 1220.56C505.574 1220.56 513.996 1146.78 558.941 1170.75C639.582 1213.75 613.375 1616.06 613.375 1616.06Z" fill="#008080"/>
<path d="M575.164 1140.98C540.068 1121.51 505.112 1178.43 505.112 1178.43C505.112 1178.43 508.653 1028.13 434.083 1023.96C384.637 1021.19 406.285 1106.26 406.285 1106.26C406.285 1106.26 305.552 910.441 233.746 944.52L613.701 1612.93C616.385 1566.26 644.691 1179.56 575.164 1140.98Z" fill="#004040"/>
<path d="M606.012 1617.8C606.012 1617.8 372.97 1646.75 312.63 1620.95C252.29 1595.16 295.533 1563.3 295.533 1563.3C295.533 1563.3 165.97 1537.83 155.974 1498.09C145.978 1458.35 205.746 1461.52 205.746 1461.52C205.746 1461.52 81.5115 1381.07 98.1225 1353.99C129.063 1303.56 271.465 1384.77 271.465 1384.77C271.465 1384.77 223.395 1340.5 255.36 1322.13C303.566 1294.43 379.838 1415.71 379.838 1415.71C379.838 1415.71 375.099 1385.82 412.872 1382.51C480.645 1376.56 606.012 1617.8 606.012 1617.8Z" fill="#008080"/>
<path d="M414.401 1360.79C376.629 1364.1 379.837 1415.71 379.837 1415.71C379.837 1415.71 302.186 1271.95 253.98 1299.65C222.015 1318.02 259.833 1378.34 259.833 1378.34C259.833 1378.34 129.062 1303.56 98.1211 1353.99L606.718 1616.51C589.426 1586.31 477.706 1355.23 414.401 1360.79Z" fill="#004040"/>
<path d="M1946.04 1277.46L1958.56 1247.21C1968.27 1224.96 1993.12 1214.33 2014.07 1223.48C2066.85 1246.52 2089.79 1310.65 2065.32 1366.71L2047.42 1407.7C2039.59 1425.66 2042.32 1445.42 2052.89 1459.35C2062.49 1472 2064.05 1489.59 2057.4 1504.84L2047.96 1526.45C2037.75 1549.84 2017.88 1567.17 1994.31 1574.32C1980.53 1578.5 1968.35 1588.84 1961.92 1603.59L1948.56 1634.19C1933.79 1668.02 1896 1684.17 1864.16 1670.27L1845.99 1662.34C1814.15 1648.44 1800.3 1609.74 1815.07 1575.92C1838.95 1535.47 1837.05 1505.28 1828.58 1484.8C1816.14 1454.7 1816.29 1420.05 1829.75 1389.22L1831.63 1384.9C1845.84 1352.35 1873.27 1328.05 1905.94 1317.65C1920.36 1313.06 1935.4 1301.84 1946.04 1277.46Z" fill="white"/>
<path d="M1121.48 1875.02C1087.65 1831.17 902.165 1596.21 781.219 1557.05C647.716 1513.84 773.542 1685.49 773.542 1685.49C773.542 1685.49 536.711 1426.52 449.802 1449.87C370.135 1471.27 449.802 1631.79 449.802 1631.79C449.802 1631.79 360.074 1542.9 251.262 1542.9C145.361 1542.9 325.248 1858.15 334.952 1875.02H1121.48Z" fill="#004040"/>
<path d="M2120.63 934.396C2120.63 934.396 2086.48 978.476 2066.38 995.775C2046.28 1013.07 2027.11 1029.63 2001.49 1084.66C1975.86 1139.68 1976.59 1145.99 1969.79 1160.16C1962.98 1174.33 1927.22 1229.83 1924.51 1240.9C1921.81 1251.98 1863.42 1305.02 1845.35 1332C1827.28 1358.98 1797.63 1396.63 1793.74 1418.4L1799.02 1418.29C1799.02 1418.29 1814.74 1369.07 1861.07 1326.41C1907.39 1283.74 1904.68 1273.02 1949.95 1256.1C1995.23 1239.18 2037.29 1173.12 2037.29 1173.12C2037.29 1173.12 2095.36 1104.26 2102.95 1063.21C2110.54 1022.15 2129.65 987.979 2120.63 934.396Z" fill="#004040"/>
<path d="M2085.19 846.15C2085.19 846.15 2076.34 878.26 2061.4 895.087C2046.47 911.913 2034.74 921.515 2027.99 941.909C2021.25 962.303 2002.19 1014.49 1966.94 1033.94C1931.68 1053.38 1909.68 1131.09 1881.96 1149.7C1854.24 1168.31 1847.37 1184.72 1841.98 1226.44C1836.6 1268.16 1837.39 1327.89 1788.04 1394.15L1785.03 1374.12C1785.03 1374.12 1822.17 1318.81 1824.85 1281.98C1827.54 1245.16 1820.62 1186.97 1833.71 1162.88C1846.8 1138.79 1821.56 1127.62 1846.51 1092.38C1871.47 1057.14 1868.08 1042.09 1897.56 1013.46C1897.56 1013.46 1900.15 1012.4 1912.46 985.241C1924.78 958.081 1982.81 916.544 2008.09 903.646C2033.38 890.747 2070.5 869.282 2085.19 846.15Z" fill="#004040"/>
<path d="M1961.74 986.627C1961.74 986.627 1926.33 1024.09 1919.49 1051.91C1912.64 1079.73 1910.38 1103.13 1888.68 1138.37C1866.99 1173.6 1886.8 1203.67 1874.56 1223.06C1862.33 1242.45 1855.95 1267.3 1851.77 1286.29C1847.59 1305.29 1803.78 1361.18 1791.95 1391.89C1780.12 1422.59 1785.78 1424.02 1785.78 1424.02C1785.78 1424.02 1800.37 1383.24 1810.32 1370.95C1820.27 1358.65 1851.83 1315.64 1860.9 1298.26C1869.98 1280.89 1885.69 1272.04 1904.14 1243.33C1922.58 1214.62 1944.59 1191.95 1953.71 1147.25C1962.83 1102.55 1991.61 1059.82 1961.74 986.627Z" fill="#004040"/>
<path d="M1809.37 1398.85C1809.37 1398.85 1833.97 1346.57 1885.05 1352.66C1936.12 1358.74 1963.08 1375.39 2007.6 1343.37C2052.13 1311.35 2087.39 1252.32 2101.18 1243.95C2101.18 1243.95 2085.62 1230.74 2049.85 1251.38C2014.08 1272.02 1988.59 1288.06 1967.86 1300.1C1947.13 1312.14 1935.74 1298.49 1915.33 1304.86C1898.23 1310.2 1872.82 1331.21 1861.14 1342.6C1857.35 1346.3 1853.12 1349.52 1848.51 1352.13C1844.32 1354.52 1839.3 1357.46 1836 1359.72C1829.39 1364.24 1805.48 1398.15 1805.48 1398.15L1809.37 1398.85Z" fill="#004040"/>
<path d="M1794.08 1385.06C1794.08 1385.06 1827.27 1321.85 1823.18 1286.19C1819.08 1250.53 1787.95 1217.6 1794.24 1197.26C1800.53 1176.92 1837.15 1126.51 1827.57 1080.41C1827.57 1080.41 1811.62 1115.84 1802.48 1122.42C1793.34 1129 1736.04 1150.78 1734.6 1196.81C1733.15 1242.83 1778.93 1264.32 1787.78 1280.03C1796.64 1295.74 1812.66 1299.44 1810.76 1308.08C1808.85 1316.71 1804.7 1348.75 1792.19 1378.4L1794.08 1385.06Z" fill="#004040"/>
<path d="M1823.74 1344.49L1864.91 1279.21C1864.91 1279.21 1892.67 1225.45 1912.14 1179.77C1931.61 1134.09 1961.74 986.627 1961.74 986.627C1961.74 986.627 1926.33 1024.09 1919.49 1051.91C1912.64 1079.73 1910.38 1103.13 1888.68 1138.37C1866.99 1173.6 1886.8 1203.67 1874.56 1223.06C1862.33 1242.45 1855.95 1267.3 1851.77 1286.29C1847.59 1305.29 1803.78 1361.18 1791.95 1391.89C1785.47 1408.71 1784.24 1416.73 1784.46 1420.56C1786.96 1391.88 1823.74 1344.49 1823.74 1344.49Z" fill="#004040"/>
<path d="M1955.01 1330.43C1932 1329.7 1912.68 1323.63 1882.06 1336.99C1851.43 1350.35 1831.25 1367.54 1831.25 1367.54C1831.25 1367.54 1814.64 1385.78 1807.21 1395.71C1806.12 1397.24 1805.48 1398.15 1805.48 1398.15L1809.37 1398.85C1809.37 1398.85 1833.98 1346.57 1885.05 1352.66C1936.12 1358.74 1963.08 1375.39 2007.61 1343.37C2052.13 1311.35 2087.4 1252.31 2101.19 1243.95C2101.19 1243.95 2057 1264.35 2027.89 1284.74C1998.78 1305.12 1978.03 1331.15 1955.01 1330.43Z" fill="#004040"/>
<path d="M1802.48 1122.42C1793.34 1129 1736.04 1150.78 1734.6 1196.81C1733.15 1242.83 1778.93 1264.32 1787.78 1280.03C1796.64 1295.74 1812.66 1299.44 1810.76 1308.08C1808.85 1316.71 1804.7 1348.75 1792.2 1378.4L1793.02 1381.31C1798.42 1369.86 1806.3 1352.34 1810.72 1338.67C1817.9 1316.47 1816.41 1306.25 1813.4 1286.21C1810.38 1266.18 1773.85 1218.31 1767.09 1196.03C1760.32 1173.76 1801.14 1148.64 1812.19 1134.5C1823.24 1120.36 1827.57 1080.41 1827.57 1080.41C1827.57 1080.41 1811.62 1115.84 1802.48 1122.42Z" fill="#004040"/>
<path d="M1189.89 1875.02C1223.71 1831.17 1409.2 1596.21 1530.15 1557.05C1663.65 1513.84 1537.82 1685.49 1537.82 1685.49C1537.82 1685.49 1774.66 1426.52 1861.56 1449.87C1941.23 1471.27 1861.56 1631.79 1861.56 1631.79C1861.56 1631.79 1951.29 1542.9 2060.11 1542.9C2166.01 1542.9 1986.12 1858.15 1976.42 1875.02H1189.89Z" fill="#004040"/>
<path d="M594.754 1873.68C486.625 1726.64 355.168 1590.73 198.857 1472.55C197.296 1471.37 195.191 1474.09 196.761 1475.29C345.01 1589.25 476.167 1723.82 586.533 1875.88L594.754 1873.68Z" fill="white"/>
<path d="M286.084 1604.18C289.697 1601.62 299.062 1591.89 311.557 1588.85C323.389 1584.85 338.352 1587.53 337.836 1587.86C338.147 1588.57 327.981 1577.01 312.108 1573.66C296.859 1569.2 275.904 1572.94 269.056 1578.99C253.514 1589.51 252.269 1607.38 259.972 1610.69C267.625 1614.22 277.851 1609.35 286.084 1604.18Z" fill="white"/>
<path d="M222.425 1548.09C226.038 1545.53 235.403 1535.81 247.898 1532.76C259.73 1528.76 274.692 1531.44 274.176 1531.77C274.487 1532.48 264.321 1520.93 248.448 1517.57C233.199 1513.12 212.244 1516.86 205.396 1522.91C189.853 1533.43 188.61 1551.29 196.312 1554.61C203.967 1558.13 214.193 1553.27 222.425 1548.09Z" fill="white"/>
<path d="M393.238 1579.27C389.852 1581.38 377.803 1585.62 372.267 1595.25C365.846 1603.92 365.937 1617.97 366.382 1617.66C367.082 1618.21 356.679 1604.77 356.03 1589.65C354.105 1574.64 361.932 1557.95 369.615 1554.42C383.646 1545.14 402.853 1551.2 404.956 1559.21C407.295 1567.26 400.246 1574.19 393.238 1579.27Z" fill="white"/>
<path d="M409.718 1378.83C506.481 1529.96 577.102 1697.84 617.48 1876.19L624.113 1874.41C583.904 1699.79 513.757 1532.21 417.155 1381.25C394.703 1346.17 370.46 1304.55 328.424 1290.86C327.613 1290.59 327.306 1291.83 328.079 1292.12C366.473 1306.59 388.712 1346.03 409.718 1378.83Z" fill="white"/>
<path d="M400.874 1285.11C398.383 1288.78 388.848 1298.33 386.046 1310.88C382.283 1322.79 385.254 1337.7 385.574 1337.18C386.293 1337.47 374.541 1327.54 370.869 1311.73C366.116 1296.58 369.443 1275.55 375.355 1268.58C385.565 1252.84 403.405 1251.24 406.869 1258.88C410.546 1266.46 405.883 1276.78 400.874 1285.11Z" fill="white"/>
<path d="M377.725 1420.01C381.338 1417.44 390.703 1407.72 403.198 1404.67C415.03 1400.68 429.992 1403.36 429.476 1403.68C429.787 1404.4 419.621 1392.84 403.748 1389.48C388.499 1385.03 367.544 1388.77 360.696 1394.82C345.154 1405.34 343.91 1423.21 351.613 1426.52C359.267 1430.05 369.492 1425.18 377.725 1420.01Z" fill="white"/>
<path d="M412.66 1479.13C416.273 1476.57 425.637 1466.84 438.133 1463.8C449.965 1459.8 464.926 1462.48 464.411 1462.81C464.721 1463.52 454.556 1451.96 438.682 1448.6C423.434 1444.15 402.478 1447.89 395.63 1453.94C380.087 1464.46 378.844 1482.33 386.547 1485.64C394.202 1489.17 404.427 1484.3 412.66 1479.13Z" fill="white"/>
<path d="M449.755 1352.01C446.717 1355.24 435.795 1363.17 431.05 1375.12C425.457 1386.29 426.041 1401.48 426.438 1401.01C427.101 1401.42 417.063 1389.75 415.928 1373.57C413.625 1357.85 420.225 1337.61 427.161 1331.67C439.726 1317.73 457.595 1318.96 459.811 1327.05C462.247 1335.12 456.015 1344.57 449.755 1352.01Z" fill="white"/>
<path d="M501.124 1419.06C496.8 1421.35 481.698 1425.51 474.101 1436.81C465.502 1446.87 464.411 1464.07 464.982 1463.72C465.791 1464.46 454.217 1447.13 454.717 1428.58C453.647 1410.05 464.652 1390.3 474.354 1386.64C492.315 1376.48 515.293 1385.54 517.179 1395.52C519.35 1405.57 510.133 1413.45 501.124 1419.06Z" fill="white"/>
<path d="M555.191 1520.61C550.543 1522.14 534.956 1523.7 525.567 1533.56C515.4 1542.03 511.43 1558.81 512.052 1558.56C512.725 1559.42 504.23 1540.39 507.844 1522.19C509.906 1503.74 524.075 1486.12 534.254 1484.15C553.667 1477.16 574.794 1489.95 574.976 1500.11C575.425 1510.38 565.015 1516.59 555.191 1520.61Z" fill="white"/>
<path d="M311.907 1308.89C313.932 1307.22 319.047 1301.06 326.305 1298.71C333.129 1295.82 342.097 1296.75 341.806 1296.97C342.021 1297.38 335.502 1290.99 325.965 1289.7C316.75 1287.73 304.517 1290.86 300.731 1294.74C291.997 1301.64 292.043 1312.26 296.745 1313.89C301.427 1315.64 307.264 1312.31 311.907 1308.89Z" fill="white"/>
<path d="M331.306 1265.73C331.217 1268.36 329.459 1276.17 332.029 1283.36C333.913 1290.52 340.123 1297.06 340.118 1296.69C340.573 1296.61 331.532 1295.35 324.685 1288.59C317.501 1282.49 312.513 1270.89 313.271 1265.53C313.406 1254.39 321.849 1247.94 326.004 1250.68C330.25 1253.32 331.18 1259.97 331.306 1265.73Z" fill="white"/>
<path d="M176.577 1490.96C178.602 1489.29 183.716 1483.13 190.974 1480.78C197.798 1477.9 206.766 1478.83 206.475 1479.04C206.69 1479.45 200.171 1473.06 190.634 1471.77C181.419 1469.8 169.186 1472.93 165.399 1476.81C156.666 1483.71 156.711 1494.34 161.413 1495.96C166.097 1497.71 171.933 1494.38 176.577 1490.96Z" fill="white"/>
<path d="M199.979 1447.44C199.675 1450.05 197.284 1457.69 199.256 1465.06C200.546 1472.35 206.201 1479.38 206.225 1479.01C206.684 1478.97 197.777 1476.97 191.508 1469.67C184.848 1463.01 180.825 1451.04 182.022 1445.75C183.068 1434.67 192.011 1428.93 195.928 1432C199.945 1434.98 200.326 1441.68 199.979 1447.44Z" fill="white"/>
<path d="M220.798 1737.77C319.604 1748.6 411.627 1792.21 500.213 1834.74C559.951 1863.42 556.938 1871.59 569.106 1875.86C571.077 1876.56 573.048 1874.41 572.089 1872.52C567.407 1863.24 555.135 1856.97 546.595 1851.64C536.655 1845.43 526.27 1839.94 515.732 1834.83C493.184 1823.88 470.048 1814.03 447.064 1804.04C400.306 1783.73 352.789 1764.62 303.391 1751.68C276.31 1744.59 248.753 1739.48 220.863 1736.96C220.344 1736.92 220.283 1737.71 220.798 1737.77Z" fill="white"/>
<path d="M301.39 1705.85C300.747 1709.9 296.525 1721.67 299.129 1733.3C300.673 1744.77 309.044 1756.09 309.106 1755.52C309.825 1755.49 296.056 1751.8 286.743 1740C276.779 1729.17 271.273 1710.24 273.479 1702.06C275.825 1684.84 290.148 1676.46 296.064 1681.5C302.138 1686.4 302.3 1696.89 301.39 1705.85Z" fill="white"/>
<path d="M388.436 1737.02C387.793 1741.07 383.571 1752.84 386.175 1764.47C387.72 1775.93 396.091 1787.25 396.153 1786.69C396.872 1786.66 383.103 1782.96 373.79 1771.17C363.827 1760.34 358.32 1741.4 360.527 1733.23C362.872 1716 377.195 1707.63 383.111 1712.66C389.185 1717.57 389.347 1728.06 388.436 1737.02Z" fill="white"/>
<path d="M476.883 1776.44C476.241 1780.49 472.017 1792.26 474.622 1803.89C476.166 1815.35 484.537 1826.68 484.599 1826.11C485.318 1826.08 471.548 1822.38 462.236 1810.59C452.272 1799.76 446.765 1780.82 448.972 1772.65C451.317 1755.43 465.64 1747.05 471.557 1752.08C477.631 1756.99 477.793 1767.48 476.883 1776.44Z" fill="white"/>
<path d="M275.406 1787.18C277.195 1783.83 280.652 1772.8 289.06 1765.69C296.597 1758.1 309.084 1754.43 308.815 1754.88C309.325 1755.3 297.118 1750.34 283.671 1753.84C270.285 1756.26 255.659 1767.14 252.725 1774.39C244.839 1788.39 250.72 1802.56 257.889 1802.15C265.103 1801.93 271.077 1794.29 275.406 1787.18Z" fill="white"/>
<path d="M365.945 1819.22C367.734 1815.88 371.191 1804.85 379.599 1797.73C387.136 1790.15 399.623 1786.47 399.354 1786.92C399.865 1787.35 387.657 1782.39 374.21 1785.88C360.824 1788.3 346.198 1799.18 343.264 1806.44C335.378 1820.44 341.259 1834.61 348.428 1834.2C355.641 1833.97 361.615 1826.33 365.945 1819.22Z" fill="white"/>
<path d="M206.454 1754.19C208.019 1752.32 211.647 1745.85 217.867 1742.5C223.602 1738.73 231.929 1738.07 231.7 1738.32C231.965 1738.65 224.954 1733.92 216.049 1734.34C207.324 1734.09 196.702 1738.99 193.902 1743.16C187.1 1750.91 188.921 1760.58 193.477 1761.27C198.035 1762.09 202.795 1758.08 206.454 1754.19Z" fill="white"/>
<path d="M216.9 1711.62C217.258 1714.03 216.965 1721.44 220.509 1727.55C223.425 1733.77 230.178 1738.68 230.113 1738.35C230.513 1738.2 222.065 1738.57 214.695 1733.55C207.129 1729.2 200.64 1719.46 200.434 1714.45C198.693 1704.28 205.305 1696.99 209.549 1698.79C213.859 1700.48 215.82 1706.39 216.9 1711.62Z" fill="white"/>
<path d="M1648.76 1671.02C1921.97 1397.82 1921.96 954.873 1648.76 681.671C1375.56 408.468 932.612 408.468 659.41 681.67C386.208 954.872 386.209 1397.82 659.411 1671.02C932.613 1944.22 1375.56 1944.22 1648.76 1671.02Z" fill="#008080"/>
<path d="M1605.19 1627.45C1854.33 1378.31 1854.33 974.38 1605.19 725.242C1356.06 476.104 952.124 476.104 702.986 725.242C453.849 974.38 453.849 1378.31 702.986 1627.45C952.124 1876.59 1356.06 1876.59 1605.19 1627.45Z" fill="#008080"/>
<path d="M1533.43 1555.68C1742.93 1346.18 1742.93 1006.51 1533.43 797.009C1323.92 587.506 984.253 587.506 774.751 797.008C565.249 1006.51 565.249 1346.18 774.751 1555.68C984.253 1765.19 1323.92 1765.19 1533.43 1555.68Z" fill="#FCF5EB"/>
<path d="M1439.23 1461.49C1596.71 1304.01 1596.71 1048.68 1439.23 891.204C1281.75 733.723 1026.43 733.723 868.944 891.204C711.464 1048.68 711.464 1304.01 868.944 1461.49C1026.43 1618.97 1281.75 1618.97 1439.23 1461.49Z" fill="#008080"/>
<path d="M1356.57 1378.83C1468.4 1267 1468.4 1085.69 1356.57 973.863C1244.74 862.034 1063.43 862.033 951.605 973.862C839.776 1085.69 839.776 1267 951.606 1378.83C1063.43 1490.66 1244.75 1490.66 1356.57 1378.83Z" fill="#FCF5EB"/>
<path d="M1227.13 1176.35C1227.13 1216.68 1194.43 1249.37 1154.1 1249.37C1113.78 1249.37 1081.08 1216.68 1081.08 1176.35C1081.08 1136.02 1113.78 1103.33 1154.1 1103.33C1194.43 1103.33 1227.13 1136.02 1227.13 1176.35Z" fill="#008080"/>
<path d="M1602.44 813.889L1599.85 766.447L1760.45 640.83L1752.06 709.523L1594.66 832.628L1602.44 813.889Z" fill="#004040"/>
<path d="M1614.31 829.865L1659.73 843.809L1820.34 718.192L1751.64 709.795L1594.25 832.9L1614.31 829.865Z" fill="#004040"/>
<path d="M1148.62 1182.4C1152.27 1187.07 1159.02 1187.89 1163.69 1184.24L1616.17 830.334L1602.94 813.426L1150.46 1167.34C1145.8 1170.99 1144.97 1177.73 1148.62 1182.4Z" fill="#004040"/>
<path d="M2056.91 1873.23H288.49C285.027 1873.23 282.219 1876.04 282.219 1879.5C282.219 1882.96 285.027 1885.77 288.49 1885.77H2056.91C2060.37 1885.77 2063.18 1882.96 2063.18 1879.5C2063.18 1876.04 2060.37 1873.23 2056.91 1873.23Z" fill="#12353D"/>
</g>
<defs>
<clipPath id="clip0_1169_1776">
<rect width="2278" height="2000" fill="white"/>
</clipPath>
</defs>
</svg>
