<svg width="145" height="65" viewBox="0 0 145 65" fill="none" xmlns="http://www.w3.org/2000/svg">
<path d="M5.89846 50.5264H2.47614L1.59448 52.1815H0.195312L4.56957 44.0664H6.12207L7.60429 52.1815H6.19235L5.89846 50.5264ZM5.7217 49.4877L5.05087 45.6751L3.02772 49.4877H5.7217Z" fill="#666666"/>
<path d="M12.1021 45.9791C12.4662 45.7616 12.873 45.6519 13.3202 45.6519L13.0732 47.0283H12.7324C12.2149 47.0283 11.7997 47.1571 11.4866 47.4125C11.1735 47.6701 10.9542 48.1113 10.8285 48.7425L10.2173 52.1815H8.87781L10.0193 45.7574H11.361L11.1608 46.889C11.4206 46.5005 11.7379 46.1965 12.1021 45.9791Z" fill="#666666"/>
<path d="M15.271 50.3977C15.2561 50.5074 15.2476 50.5771 15.2476 50.6067C15.2476 50.7692 15.2987 50.8875 15.4009 50.9613C15.5031 51.0352 15.6714 51.0711 15.9077 51.0711H16.7319L16.5317 52.1794H15.4733C14.9558 52.1794 14.5597 52.076 14.285 51.8712C14.0102 51.6643 13.874 51.3371 13.874 50.8853C13.874 50.7143 13.8889 50.5518 13.9208 50.3956L14.5554 46.8404H13.7909L13.9783 45.7553H14.7556L15.0389 44.1572H16.3912L16.1079 45.7553H17.6711L17.4837 46.8404H15.9077L15.271 50.3977Z" fill="#666666"/>
<path d="M23.6511 46.3295C24.1324 46.7813 24.3751 47.3872 24.3751 48.1493C24.3751 48.3288 24.356 48.542 24.3155 48.7911C24.2836 48.9621 24.2282 49.1711 24.1515 49.4202H19.2001C19.1916 49.4751 19.1874 49.5553 19.1874 49.6651C19.1874 50.1232 19.3301 50.4884 19.6176 50.7608C19.9029 51.0331 20.2777 51.1682 20.7399 51.1682C21.4682 51.1682 22.0304 50.8684 22.4223 50.271H23.8683C23.5701 50.8621 23.1314 51.3455 22.5501 51.7234C21.9687 52.1013 21.3 52.2892 20.5397 52.2892C19.9988 52.2892 19.5238 52.1837 19.1171 51.9747C18.7082 51.7657 18.3909 51.4638 18.1651 51.0711C17.9373 50.6784 17.8244 50.2182 17.8244 49.6904C17.8244 49.4645 17.8478 49.2239 17.8947 48.9684C18.0118 48.3077 18.2503 47.7271 18.6124 47.2247C18.9723 46.7243 19.4216 46.3359 19.9583 46.0657C20.495 45.7933 21.0806 45.6582 21.7174 45.6582C22.5245 45.6519 23.1698 45.8778 23.6511 46.3295ZM22.9973 48.1599C22.9973 47.7334 22.8546 47.3935 22.5671 47.1465C22.2817 46.8974 21.9112 46.7729 21.4554 46.7729C20.9763 46.7729 20.5461 46.9249 20.1606 47.2268C19.7773 47.5308 19.5132 47.9424 19.3726 48.4618H22.9717C22.9909 48.3224 22.9973 48.2211 22.9973 48.1599Z" fill="#666666"/>
<path d="M35.6643 46.2008C36.071 46.566 36.2755 47.0832 36.2755 47.7503C36.2755 47.9297 36.2563 48.143 36.2158 48.3921L35.5344 52.1815H34.2055L34.8529 48.5905C34.8848 48.3731 34.8997 48.2169 34.8997 48.124C34.8997 47.6975 34.7805 47.3703 34.542 47.1444C34.3034 46.9185 33.9712 46.8066 33.5474 46.8066C33.0384 46.8066 32.6083 46.9607 32.259 47.2669C31.9097 47.573 31.6883 48.0142 31.5946 48.5905L30.9471 52.1815H29.6183L30.2657 48.5905C30.2976 48.3731 30.3125 48.2169 30.3125 48.124C30.3125 47.6975 30.1933 47.3703 29.9547 47.1444C29.7162 46.9185 29.384 46.8066 28.9602 46.8066C28.4512 46.8066 28.021 46.9607 27.6718 47.2669C27.3225 47.573 27.101 48.0142 27.0073 48.5905V48.5546L26.3599 52.1815H25.0204L26.1619 45.7574H27.5035L27.3736 46.5026C27.6313 46.2388 27.9444 46.0297 28.3085 45.8799C28.6727 45.7279 29.0518 45.6519 29.4436 45.6519C29.9611 45.6519 30.4062 45.7616 30.7789 45.9791C31.1516 46.1965 31.4114 46.5111 31.5605 46.9227C31.8182 46.5343 32.1759 46.2261 32.6317 45.996C33.0853 45.7659 33.5538 45.6519 34.0308 45.6519C34.7123 45.6519 35.2575 45.8355 35.6643 46.2008Z" fill="#666666"/>
<path d="M38.0814 47.2267C38.4371 46.7285 38.8758 46.3422 39.3933 46.0656C39.9108 45.7891 40.4517 45.6519 41.0161 45.6519C41.525 45.6519 41.9531 45.7511 42.2981 45.9495C42.6431 46.148 42.9008 46.395 43.0754 46.6905L43.2394 45.7574H44.5917L43.4502 52.1815H42.0979L42.2747 51.2252C41.9914 51.5292 41.6379 51.7804 41.2099 51.9831C40.7818 52.1857 40.3175 52.2871 39.8171 52.2871C39.3315 52.2871 38.8971 52.1773 38.518 51.9599C38.1368 51.7424 37.8408 51.4342 37.6236 51.0331C37.4085 50.632 37.2999 50.1717 37.2999 49.6524C37.2999 49.4202 37.3233 49.1816 37.3701 48.941C37.4873 48.295 37.7237 47.7229 38.0814 47.2267ZM42.7198 48.485C42.7198 47.9635 42.5643 47.554 42.2555 47.2542C41.9446 46.9544 41.5591 46.8045 41.097 46.8045C40.752 46.8045 40.4155 46.889 40.0854 47.0557C39.7553 47.2225 39.47 47.4674 39.2272 47.7904C38.9844 48.1134 38.8225 48.4955 38.7459 48.9389C38.7139 49.0866 38.699 49.245 38.699 49.416C38.699 49.9437 38.8545 50.3617 39.1633 50.67C39.4721 50.9782 39.8597 51.1302 40.3218 51.1302C40.6668 51.1302 41.0033 51.0457 41.3334 50.8747C41.6635 50.7037 41.9488 50.4525 42.1916 50.1232C42.4344 49.7939 42.5963 49.4054 42.6729 48.9621C42.7049 48.8164 42.7198 48.656 42.7198 48.485Z" fill="#666666"/>
<path d="M58.7985 44.0791L57.3525 52.1815H56.0108L56.999 46.6314L53.517 52.1815H52.5885L51.0722 46.6314L50.084 52.1815H48.7445L50.1905 44.0791H51.6365L53.3765 50.4335L57.3631 44.0791H58.7985Z" fill="#666666"/>
<path d="M65.0021 46.3295C65.4834 46.7813 65.7262 47.3872 65.7262 48.1493C65.7262 48.3288 65.707 48.542 65.6665 48.7911C65.6346 48.9621 65.5792 49.1711 65.5025 49.4202H60.5512C60.5426 49.4751 60.5384 49.5553 60.5384 49.6651C60.5384 50.1232 60.6811 50.4884 60.9686 50.7608C61.2539 51.0331 61.6287 51.1682 62.0909 51.1682C62.8192 51.1682 63.3814 50.8684 63.7733 50.271H65.2193C64.9212 50.8621 64.4824 51.3455 63.9011 51.7234C63.3197 52.1013 62.651 52.2892 61.8907 52.2892C61.3498 52.2892 60.8749 52.1837 60.4681 51.9747C60.0592 51.7657 59.7419 51.4638 59.5162 51.0711C59.2883 50.6784 59.1754 50.2182 59.1754 49.6904C59.1754 49.4645 59.1988 49.2239 59.2457 48.9684C59.3628 48.3077 59.6013 47.7271 59.9634 47.2247C60.3233 46.7243 60.7726 46.3359 61.3093 46.0657C61.846 45.7933 62.4316 45.6582 63.0684 45.6582C63.8755 45.6519 64.5187 45.8778 65.0021 46.3295ZM64.3483 48.1599C64.3483 47.7334 64.2056 47.3935 63.9181 47.1465C63.6327 46.8974 63.2622 46.7729 62.8064 46.7729C62.3273 46.7729 61.8971 46.9249 61.5116 47.2268C61.1283 47.5308 60.8642 47.9424 60.7237 48.4618H64.3227C64.3419 48.3224 64.3483 48.2211 64.3483 48.1599Z" fill="#666666"/>
<path d="M67.2126 47.2267C67.5683 46.7285 68.007 46.3421 68.5245 46.0656C69.042 45.789 69.5871 45.6518 70.16 45.6518C70.5838 45.6518 70.9842 45.7426 71.359 45.9262C71.7359 46.1099 72.0213 46.3527 72.2172 46.6546L72.7709 43.5533H74.1233L72.5814 52.1815H71.2291L71.4059 51.2146C71.1226 51.5334 70.7734 51.7909 70.3538 51.9894C69.9343 52.1878 69.4743 52.287 68.9717 52.287C68.4776 52.287 68.0389 52.1772 67.6556 51.9598C67.2722 51.7423 66.972 51.4341 66.7569 51.033C66.5418 50.6319 66.4332 50.1717 66.4332 49.6523C66.4332 49.4201 66.4566 49.1816 66.5034 48.9409C66.6184 48.2949 66.8548 47.7228 67.2126 47.2267ZM71.8531 48.4849C71.8531 47.9635 71.6976 47.5539 71.3888 47.2541C71.0779 46.9544 70.6924 46.8045 70.2303 46.8045C69.8853 46.8045 69.5488 46.8889 69.2187 47.0557C68.8886 47.2225 68.6033 47.4673 68.3605 47.7903C68.1177 48.1133 67.9559 48.4955 67.8792 48.9388C67.8472 49.0866 67.8323 49.2449 67.8323 49.4159C67.8323 49.9437 67.9878 50.3617 68.2966 50.6699C68.6054 50.9781 68.993 51.1301 69.4551 51.1301C69.8001 51.1301 70.1366 51.0457 70.4667 50.8747C70.7968 50.7037 71.0821 50.4525 71.3249 50.1231C71.5677 49.7938 71.7296 49.4053 71.8062 48.962C71.836 48.8163 71.8531 48.6559 71.8531 48.4849Z" fill="#666666"/>
<path d="M76.8279 45.7574L75.6865 52.1815H74.3469L75.4884 45.7574H76.8279ZM75.8036 44.7082C75.6694 44.5752 75.6034 44.4084 75.6034 44.2079C75.6034 43.9355 75.7078 43.7012 75.9143 43.5027C76.1209 43.3043 76.3594 43.2051 76.6256 43.2051C76.8365 43.2051 77.0068 43.2705 77.1367 43.4035C77.2666 43.5365 77.3305 43.7033 77.3305 43.9039C77.3305 44.1762 77.2283 44.4105 77.0239 44.609C76.8194 44.8074 76.5852 44.9066 76.319 44.9066C76.1103 44.9066 75.9377 44.8412 75.8036 44.7082Z" fill="#666666"/>
<path d="M78.291 47.2204C78.6466 46.72 79.0896 46.3316 79.6198 46.0614C80.1501 45.789 80.723 45.6539 81.3427 45.6539C82.1264 45.6539 82.7419 45.8397 83.1891 46.207C83.6363 46.5765 83.8897 47.1021 83.9536 47.7861H82.5076C82.4459 47.4674 82.2989 47.2183 82.0732 47.0409C81.8453 46.8615 81.5365 46.7728 81.1447 46.7728C80.5952 46.7728 80.1246 46.9649 79.7327 47.3491C79.3409 47.7334 79.0811 48.2717 78.9554 48.9642C78.9171 49.2133 78.8958 49.4159 78.8958 49.57C78.8958 50.083 79.0257 50.4778 79.2834 50.7544C79.541 51.0309 79.9031 51.1682 80.3652 51.1682C81.1425 51.1682 81.7133 50.8304 82.0817 50.1548H83.5277C83.221 50.8072 82.7759 51.3265 82.1924 51.7107C81.6089 52.0949 80.9317 52.287 80.1629 52.287C79.3473 52.287 78.6998 52.0548 78.2228 51.5925C77.7436 51.1302 77.5051 50.5032 77.5051 49.7094C77.5051 49.4687 77.5285 49.2196 77.5754 48.9642C77.6968 48.3034 77.9353 47.7207 78.291 47.2204Z" fill="#666666"/>
<path d="M85.3486 47.2267C85.7042 46.7285 86.1429 46.3422 86.6604 46.0656C87.1779 45.7891 87.7189 45.6519 88.2832 45.6519C88.7922 45.6519 89.2203 45.7511 89.5653 45.9495C89.9103 46.148 90.1679 46.395 90.3426 46.6905L90.5066 45.7574H91.8589L90.7174 52.1815H89.3651L89.5418 51.2252C89.2586 51.5292 88.9051 51.7804 88.477 51.9831C88.049 52.1857 87.5847 52.2871 87.0842 52.2871C86.5987 52.2871 86.1642 52.1773 85.7852 51.9599C85.404 51.7424 85.1079 51.4342 84.8907 51.0331C84.6756 50.632 84.567 50.1717 84.567 49.6524C84.567 49.4202 84.5904 49.1816 84.6373 48.941C84.7544 48.295 84.9908 47.7229 85.3486 47.2267ZM89.9869 48.485C89.9869 47.9635 89.8315 47.554 89.5227 47.2542C89.2117 46.9544 88.8263 46.8045 88.3642 46.8045C88.0192 46.8045 87.6827 46.889 87.3526 47.0557C87.0225 47.2225 86.7371 47.4674 86.4943 47.7904C86.2516 48.1134 86.0897 48.4955 86.013 48.9389C85.9811 49.0866 85.9662 49.245 85.9662 49.416C85.9662 49.9437 86.1216 50.3617 86.4304 50.67C86.7392 50.9782 87.1268 51.1302 87.589 51.1302C87.934 51.1302 88.2704 51.0457 88.6005 50.8747C88.9306 50.7037 89.216 50.4525 89.4588 50.1232C89.7016 49.7939 89.8634 49.4054 89.9401 48.9621C89.972 48.8164 89.9869 48.656 89.9869 48.485Z" fill="#666666"/>
<path d="M95.3621 43.5533L93.8202 52.1815H92.4807L94.0204 43.5533H95.3621Z" fill="#666666"/>
<path d="M100.331 45.9791C100.812 45.35 101.404 44.8581 102.107 44.5034C102.807 44.1487 103.54 43.9735 104.3 43.9735C105.171 43.9735 105.91 44.1846 106.517 44.609C107.124 45.0333 107.512 45.6328 107.676 46.4097H106.063C105.914 46.0065 105.672 45.7004 105.335 45.4935C104.999 45.2866 104.583 45.1853 104.089 45.1853C103.548 45.1853 103.044 45.3056 102.577 45.5463C102.111 45.787 101.719 46.1289 101.402 46.5723C101.084 47.0156 100.874 47.5286 100.771 48.1113C100.733 48.3667 100.712 48.5863 100.712 48.7636C100.712 49.4624 100.923 50.0197 101.346 50.4314C101.77 50.8431 102.334 51.05 103.039 51.05C103.768 51.05 104.4 50.8452 104.933 50.4377C105.465 50.0303 105.842 49.4751 106.061 48.7763H102.993L103.18 47.7376H107.684L107.497 48.7763C107.301 49.4054 106.971 49.986 106.509 50.5137C106.046 51.0415 105.495 51.4637 104.856 51.7783C104.217 52.0928 103.54 52.2512 102.826 52.2512C102.151 52.2512 101.549 52.1118 101.016 51.8311C100.484 51.5503 100.066 51.1597 99.7704 50.6531C99.4723 50.1485 99.3232 49.5658 99.3232 48.9051C99.3232 48.656 99.3466 48.3921 99.3935 48.1134C99.5361 47.3196 99.8492 46.6082 100.331 45.9791Z" fill="#666666"/>
<path d="M111.432 45.9791C111.796 45.7616 112.203 45.6519 112.65 45.6519L112.403 47.0283H112.063C111.545 47.0283 111.13 47.1571 110.817 47.4125C110.504 47.6701 110.284 48.1113 110.159 48.7425L109.548 52.1815H108.208L109.349 45.7574H110.691L110.491 46.889C110.753 46.5005 111.068 46.1965 111.432 45.9791Z" fill="#666666"/>
<path d="M114.109 51.9472C113.694 51.7213 113.37 51.4025 113.138 50.9909C112.906 50.5792 112.791 50.1084 112.791 49.5807C112.791 48.8587 112.961 48.1979 113.302 47.5983C113.643 47.0009 114.113 46.5259 114.714 46.1754C115.315 45.825 115.983 45.6498 116.72 45.6498C117.27 45.6498 117.755 45.7638 118.179 45.9939C118.603 46.224 118.933 46.5428 119.173 46.9502C119.412 47.3577 119.531 47.8306 119.531 48.3668C119.531 49.0888 119.354 49.7496 119.001 50.3491C118.647 50.9487 118.17 51.4194 117.566 51.7657C116.961 52.1119 116.292 52.285 115.555 52.285C115.006 52.2871 114.524 52.1731 114.109 51.9472ZM116.948 50.7882C117.321 50.5349 117.612 50.2013 117.823 49.7854C118.034 49.3696 118.141 48.9241 118.141 48.4512C118.141 47.915 117.987 47.5012 117.683 47.2099C117.376 46.9186 116.993 46.7729 116.531 46.7729C116.075 46.7729 115.67 46.8996 115.312 47.1508C114.955 47.4041 114.678 47.7419 114.478 48.1641C114.277 48.5884 114.177 49.0402 114.177 49.5216C114.177 50.043 114.32 50.4462 114.608 50.7333C114.893 51.0204 115.263 51.164 115.719 51.164C116.166 51.1661 116.577 51.0416 116.948 50.7882Z" fill="#666666"/>
<path d="M127.234 45.7574L126.093 52.1816H124.753L124.883 51.4237C124.625 51.6876 124.312 51.8966 123.948 52.0464C123.584 52.1984 123.209 52.2744 122.826 52.2744C122.144 52.2744 121.599 52.0908 121.19 51.7256C120.781 51.3603 120.579 50.8431 120.579 50.176C120.579 49.9966 120.598 49.7833 120.639 49.5342L121.31 45.7574H122.638L122.004 49.3358C121.972 49.5532 121.957 49.7095 121.957 49.8023C121.957 50.2309 122.076 50.556 122.315 50.7819C122.553 51.0078 122.885 51.1197 123.309 51.1197C123.803 51.1197 124.223 50.974 124.568 50.6827C124.913 50.3913 125.141 49.9691 125.249 49.4181L125.897 45.7574H127.234Z" fill="#666666"/>
<path d="M131.238 45.9559C131.666 45.7532 132.126 45.6519 132.62 45.6519C133.114 45.6519 133.553 45.7574 133.936 45.9664C134.319 46.1754 134.618 46.4752 134.831 46.8636C135.041 47.2521 135.148 47.7081 135.148 48.2274C135.148 48.4533 135.124 48.6897 135.078 48.9389C134.96 49.5849 134.722 50.1612 134.366 50.67C134.008 51.1787 133.574 51.5756 133.061 51.8585C132.548 52.1414 132.009 52.285 131.444 52.285C130.95 52.285 130.529 52.1857 130.179 51.9873C129.83 51.7889 129.558 51.5419 129.362 51.2463L128.657 55.2342H127.315L128.997 45.7553H130.339L130.175 46.699C130.456 46.4055 130.81 46.1585 131.238 45.9559ZM133.761 48.4617C133.761 47.9403 133.606 47.535 133.297 47.2436C132.988 46.9523 132.597 46.8066 132.128 46.8066C131.792 46.8066 131.455 46.8932 131.123 47.0621C130.788 47.2331 130.501 47.4822 130.258 47.8073C130.015 48.1345 129.854 48.5187 129.777 48.9621C129.745 49.1099 129.73 49.2703 129.73 49.4392C129.73 49.9606 129.886 50.3723 130.194 50.6742C130.503 50.9782 130.891 51.1281 131.353 51.1281C131.698 51.1281 132.036 51.0415 132.371 50.8663C132.703 50.6911 132.993 50.4377 133.235 50.1021C133.478 49.7685 133.64 49.3801 133.717 48.9367C133.744 48.7932 133.761 48.6327 133.761 48.4617Z" fill="#666666"/>
<path d="M20.4099 16.5123C22.6056 16.6242 24.8012 16.7361 26.9969 16.8479C21.6941 25.2586 16.3913 33.6672 11.0907 42.0778H2.83838C8.09856 33.8635 13.3566 25.6471 18.6168 17.4327C19.0044 16.8268 19.6901 16.4764 20.4099 16.5123Z" fill="#004040"/>
<path d="M30.3 21.0743C25.9513 28.0748 21.6026 35.0773 17.2539 42.0778H25.0079C29.8464 34.7184 34.6849 27.3612 39.5234 20.0019C37.3895 19.8752 35.2557 19.7464 33.1218 19.6198C31.9845 19.5522 30.8984 20.1096 30.3 21.0743Z" fill="#008080"/>
<path d="M40.2198 28.1824C37.0722 32.8142 33.9225 37.4459 30.7749 42.0777C33.9566 42.1115 37.1382 42.1432 40.3199 42.1769C40.2858 37.5114 40.2539 32.8458 40.2198 28.1824Z" fill="#004040"/>
<path d="M62.8874 38.2481H54.2667L52.2947 42.122H43.7847L57.8104 16.4868H67.1616L72.0193 42.122H63.4731L62.8874 38.2481ZM62.01 32.2019L60.9516 25.0685L57.3355 32.2019H62.01Z" fill="#008080"/>
<path d="M109.494 16.4889L104.928 42.1241H96.8572L99.121 29.3793L92.8748 42.1241H85.9343L84.2178 29.2696L81.954 42.1241H73.8444L78.4103 16.4889H88.3451L91.3031 31.9127L99.5938 16.4889H109.494Z" fill="#008080"/>
<path d="M112.927 22.4993C114.339 20.5212 116.128 18.9822 118.296 17.8823C120.464 16.7845 122.875 16.2356 125.528 16.2356C127.792 16.2356 129.722 16.6029 131.317 17.3397C132.912 18.0765 134.104 19.1194 134.897 20.4726C135.687 21.8237 136.047 23.4176 135.974 25.2521H127.428C127.209 24.7455 126.832 24.3528 126.295 24.0763C125.758 23.7997 125.077 23.6604 124.251 23.6604C122.692 23.6604 121.395 24.167 120.36 25.1804C119.325 26.1937 118.662 27.5575 118.369 29.2717C118.247 29.9958 118.185 30.5869 118.185 31.045C118.185 33.8465 119.829 35.2462 123.115 35.2462C124.99 35.2462 126.634 34.4988 128.046 33.002H121.58L122.566 27.3168H135.753L134.328 35.3559C132.867 37.2623 131.027 38.8984 128.812 40.2622C126.595 41.6259 123.978 42.3078 120.958 42.3078C118.62 42.3078 116.624 41.8856 114.968 41.0412C113.311 40.1967 112.052 39.0082 111.187 37.4755C110.323 35.9428 109.891 34.1505 109.891 32.0985C109.891 31.1337 109.976 30.1922 110.146 29.2738C110.589 26.7342 111.513 24.4774 112.927 22.4993Z" fill="#008080"/>
</svg>
