<svg width="6666" height="6666" viewBox="0 0 6666 6666" fill="none" xmlns="http://www.w3.org/2000/svg">
<path d="M3333 5700.24C1905.39 5700.24 748.073 5632.66 748.073 5549.29C748.073 5465.91 1905.39 5398.33 3333 5398.33C4760.62 5398.33 5917.93 5465.91 5917.93 5549.29C5917.93 5632.66 4760.62 5700.24 3333 5700.24Z" fill="#1C6758"/>
<path d="M4984.66 1000.83L4993.81 991.114C4931.44 932.44 4853.94 895.097 4769.7 883.111L4767.82 896.31C4849.33 907.909 4924.31 944.052 4984.66 1000.83Z" fill="#1C6758"/>
<path d="M5083.29 1146.58L5095.72 1141.74C5082.51 1107.93 5064.8 1075.92 5043.1 1046.57L5032.38 1054.52C5053.38 1082.9 5070.51 1113.87 5083.29 1146.58Z" fill="#1C6758"/>
<path d="M4711.39 1657.25C4509.37 1657.25 4345.6 1493.48 4345.6 1291.46C4345.6 1089.44 4509.37 925.668 4711.39 925.668C4913.41 925.668 5077.18 1089.44 5077.18 1291.46C5077.18 1493.48 4913.41 1657.25 4711.39 1657.25Z" fill="#1C6758"/>
<path d="M4493.32 1126.67C4552.8 1064.97 4651.04 1064.29 4711.38 1124.63C4771.71 1064.31 4869.95 1064.97 4929.43 1126.67C4987.81 1187.23 4983.31 1284.78 4923.84 1344.27L4750.92 1517.18C4729.09 1539.03 4693.66 1539.03 4671.81 1517.18L4498.9 1344.27C4439.44 1284.79 4434.94 1187.24 4493.32 1126.67Z" fill="white"/>
<path d="M4711.39 1451.35C4711.55 1451.35 4711.71 1451.35 4711.87 1451.34C4717.38 1451.14 4722.21 1447.56 4724 1442.32L4801.22 1216.63L4833.51 1311.03C4835.36 1316.43 4840.43 1320.06 4846.12 1320.06H4975.33C4982.69 1320.06 4988.66 1314.1 4988.66 1306.72C4988.66 1299.35 4982.69 1293.39 4975.33 1293.39H4855.65L4813.83 1171.12C4811.98 1165.72 4806.92 1162.1 4801.22 1162.1C4795.51 1162.1 4790.44 1165.71 4788.6 1171.12L4710.05 1400.74L4633.83 1221.19C4631.85 1216.49 4627.37 1213.36 4622.29 1213.09C4617.17 1212.75 4612.41 1215.45 4609.93 1219.89L4568.84 1293.4H4447.45C4440.09 1293.4 4434.12 1299.36 4434.12 1306.74C4434.12 1314.11 4440.09 1320.07 4447.45 1320.07H4576.67C4581.49 1320.07 4585.94 1317.46 4588.3 1313.24L4619.93 1256.66L4699.12 1443.23C4701.21 1448.16 4706.05 1451.35 4711.39 1451.35Z" fill="#1C6758"/>
<path d="M2681.53 5082.17H4073.02C4170.21 5082.17 4244.36 5002.65 4237.79 4905.46L4012.73 1573.74C4006.16 1476.54 3921.28 1397.02 3824.08 1397.02H2432.6C2335.41 1397.02 2261.25 1476.54 2267.83 1573.74L2492.88 4905.46C2499.46 5002.65 2584.36 5082.17 2681.53 5082.17Z" fill="#263238"/>
<path d="M2373.72 2753.87H2408.83C2435.96 2753.87 2456.66 2731.67 2454.84 2704.53L2411.8 2067.46C2409.96 2040.33 2386.27 2018.12 2359.13 2018.12H2324.02C2296.89 2018.12 2276.19 2040.32 2278.01 2067.46L2321.05 2704.53C2322.89 2731.66 2346.59 2753.87 2373.72 2753.87Z" fill="#263238"/>
<path d="M4033.16 2328.89H4068.2C4090.39 2328.89 4107.31 2310.73 4105.82 2288.53L4090.27 2058.46C4088.78 2036.26 4069.4 2018.1 4047.2 2018.1H4012.16C3989.96 2018.1 3973.03 2036.26 3974.54 2058.46L3990.08 2288.53C3991.58 2310.73 4010.96 2328.89 4033.16 2328.89Z" fill="#1C6758"/>
<path d="M4060.9 2739.77H4095.94C4118.14 2739.77 4135.07 2721.61 4133.56 2699.41L4118.02 2469.35C4116.52 2447.15 4097.14 2429 4074.94 2429H4039.91C4017.71 2429 4000.78 2447.15 4002.28 2469.35L4017.83 2699.41C4019.33 2721.61 4038.72 2739.77 4060.9 2739.77Z" fill="#1C6758"/>
<path d="M2711 5082.17H4102.48C4199.67 5082.17 4273.83 5002.65 4267.25 4905.46L4042.2 1573.74C4035.64 1476.54 3950.74 1397.02 3853.55 1397.02H2462.06C2364.87 1397.02 2290.72 1476.54 2297.29 1573.74L2522.35 4905.46C2528.92 5002.65 2613.81 5082.17 2711 5082.17Z" fill="#1C6758"/>
<path opacity="0.3" d="M4252.67 4868.79L4032.97 1616.42H2312.29L2532 4868.79H4252.67Z" fill="white"/>
<path opacity="0.1" d="M3573.35 4868.79L2959.33 1616.42H2573.89L3187.91 4868.79H3573.35Z" fill="white"/>
<path opacity="0.1" d="M3864.48 4868.79L3250.45 1616.42H3055.21L3669.23 4868.79H3864.48Z" fill="white"/>
<path d="M3331.11 1478.73H2995.57C2983.58 1478.73 2974.44 1488.54 2975.25 1500.51C2976.06 1512.5 2986.53 1522.3 2998.51 1522.3H3334.05C3346.04 1522.3 3355.18 1512.5 3354.37 1500.51C3353.56 1488.54 3343.09 1478.73 3331.11 1478.73Z" fill="white"/>
<path d="M3400.97 5402.74L3518.62 5414.04L3561.03 5142.65L3443.38 5131.35L3400.97 5402.74Z" fill="#FFB573"/>
<path d="M3532.01 5356.54L3408.91 5318.22C3404.3 5316.78 3399.74 5318.88 3397.94 5323.28L3357.73 5421.12C3353.56 5431.27 3359.69 5444.02 3370.36 5447.14C3414.9 5460.17 3457.22 5463.64 3510.93 5486.68C3573.75 5513.62 3600.09 5549.05 3667.58 5549.05C3716.04 5549.05 3726.91 5504.69 3706.47 5498.49C3613.47 5470.25 3625.37 5447.04 3557.59 5374.18C3550.22 5366.26 3541.74 5359.57 3532.01 5356.54Z" fill="#263238"/>
<path opacity="0.2" d="M3561 5142.73L3539.17 5282.62L3421.46 5271.31L3443.3 5131.42L3561 5142.73Z" fill="black"/>
<path d="M3475.92 1714.44C3630.18 1696.3 3783.62 1708.51 3937.61 1738.37C3989.82 1748.49 4030.41 1791.51 4036.41 1844.55C4053.12 1991.99 4072.14 2322.49 3997.77 2815.45C3997.76 2815.5 3367.45 2762.39 3367.45 2762.39C3366.14 2672.89 3429.8 2265.39 3377.2 1842.32C3369.29 1778.62 3413.05 1721.83 3475.92 1714.44Z" fill="white"/>
<path d="M3843 1840.82L3820.41 1886C3818.14 1890.52 3813.62 1893.48 3808.58 1893.73L3784.21 1894.98C3779.85 1895.21 3775.54 1893.9 3772.04 1891.29L3729.99 1860L3781.93 1822.23L3843 1840.82Z" fill="#263238"/>
<path d="M3783.3 1882.15C3801.48 1875.37 3811.75 1879.84 3811.75 1879.84C3831.65 1949.81 3853.42 2150.73 3855.59 2239.56C3795.36 2415.04 3775.68 2432.84 3775.68 2432.84L3745.07 2221.57C3745.07 2221.57 3779.33 2005.63 3783.3 1882.15Z" fill="#263238"/>
<path d="M3609.36 1410.46C3623.75 1497.38 3635.97 1656.29 3573.7 1712.42C3619.35 1760.36 3679.22 1815.94 3781.88 1822.22C3884.53 1828.5 3868.68 1757.4 3842.66 1719.41C3746.84 1693.88 3751.47 1622.38 3770.28 1555.63L3609.36 1410.46Z" fill="#FFB573"/>
<path d="M3547.46 1704.75C3555.52 1701.11 3564.24 1698.74 3570.1 1697.39C3573.99 1696.46 3578.03 1698.04 3580 1701.5C3589.96 1718.35 3620.12 1793.37 3781.91 1822.23C3755.33 1837.92 3719.92 1886.8 3704.64 1910.16C3656.13 1884.99 3529.87 1809.63 3541.94 1712.19C3542.46 1708.99 3544.42 1706.08 3547.46 1704.75Z" fill="#F5F5F5"/>
<path d="M3841.78 1723.37C3840.44 1716.72 3846.14 1710.92 3852.71 1712.18C3859.42 1713.44 3866.07 1715.59 3869.24 1716.66C3870.53 1717.08 3871.52 1717.78 3872.65 1718.63C3885.04 1730.09 3952.63 1827.62 3889.39 1906.58C3875.31 1885.17 3830.06 1836.43 3781.94 1822.23C3827.43 1801.63 3849.9 1763.45 3841.78 1723.37Z" fill="#F5F5F5"/>
<path opacity="0.2" d="M3674.97 1469.69L3770.21 1555.55C3765.7 1571.35 3762.09 1587.4 3760.49 1603.04C3723.79 1596.76 3674.34 1555 3671.58 1516.33C3670.21 1497.04 3671.57 1478.57 3674.97 1469.69Z" fill="black"/>
<path d="M3802.17 1147.74C3884.24 1179.82 3889.67 1247.33 3881.55 1321.18C3873.43 1395.02 3793.89 1346.08 3776.06 1300.06C3758.25 1254.05 3688.43 1103.28 3802.17 1147.74Z" fill="#263238"/>
<path d="M3540.22 1294.78C3563.02 1410.9 3570.52 1479.88 3637.02 1533.34C3737.05 1613.77 3872.73 1544.25 3884.68 1424.46C3895.44 1316.64 3856.35 1144.86 3736.83 1111.01C3619.08 1077.67 3517.42 1178.67 3540.22 1294.78Z" fill="#FFB573"/>
<path d="M3544.99 1390.97C3642.76 1396.15 3622.03 1340.6 3604.26 1308.75C3586.48 1276.9 3622.77 1224.32 3599.07 1196.91C3641.29 1213.69 3685.62 1199.87 3742.01 1160.62C3785.78 1130.15 3840.52 1252.14 3893.85 1190.99C3944.22 1133.22 3897.43 1046.18 3776.45 1032.11C3655.48 1018.06 3633.4 1103.81 3553.89 1096.17C3474.37 1088.54 3502.04 1153.94 3517.6 1167.27C3450.94 1171.74 3414.63 1235.44 3544.99 1390.97Z" fill="#263238"/>
<path d="M3532.41 1175.43C3532.41 1175.43 3482.41 1151.36 3481.68 1090.25C3455.75 1136.55 3458.64 1189.07 3532.41 1175.43Z" fill="#263238"/>
<path d="M3786.28 1418.83C3750.23 1424.6 3726.32 1405.34 3725.23 1404.42C3724.02 1403.42 3723.83 1401.66 3724.79 1400.47C3725.75 1399.29 3727.52 1399.14 3728.74 1400.13C3729.02 1400.35 3756.88 1422.68 3796.6 1410.66C3798.08 1410.22 3799.65 1411.05 3800.14 1412.54C3800.62 1414.02 3799.82 1415.58 3798.36 1416.03C3794.18 1417.3 3790.16 1418.2 3786.28 1418.83Z" fill="#263238"/>
<path d="M3516.52 1426.27C3536.06 1451.67 3565.26 1465.93 3591.1 1469.25C3629.96 1474.23 3642.81 1438.08 3626.51 1404.34C3611.81 1373.97 3573.9 1334.77 3537.54 1345.35C3501.72 1355.76 3494.16 1397.23 3516.52 1426.27Z" fill="#FFB573"/>
<path d="M3555.07 3951.17C3550.43 3603.04 3505.97 2774.06 3505.97 2774.06L3997.38 2815.47C3997.38 2815.47 3899.64 3669.91 3840.63 4025.03C3779.32 4394.27 3591.18 5259.02 3591.18 5259.02L3391.69 5242.04C3391.69 5242.04 3464.27 4220.33 3555.07 3951.17Z" fill="#263238"/>
<path d="M3603.27 5264.53L3366.12 5244.45L3375.44 5167.87L3622.5 5184.43L3603.27 5264.53Z" fill="#1C6758"/>
<path d="M3715.32 1301.72C3716.6 1311.24 3722.63 1318.4 3728.79 1317.71C3734.95 1317.02 3738.91 1308.75 3737.63 1299.23C3736.35 1289.71 3730.32 1282.55 3724.16 1283.25C3718 1283.93 3714.04 1292.2 3715.32 1301.72Z" fill="#263238"/>
<path d="M3824.12 1292.71C3825.4 1302.23 3831.43 1309.39 3837.59 1308.7C3843.75 1308 3847.71 1299.74 3846.43 1290.22C3845.15 1280.7 3839.12 1273.54 3832.96 1274.23C3826.8 1274.91 3822.84 1283.19 3824.12 1292.71Z" fill="#263238"/>
<path d="M3793.44 1304.43C3793.44 1304.43 3823.27 1350.4 3850.84 1371.58C3836.71 1386.45 3807.42 1382.34 3807.42 1382.34L3793.44 1304.43Z" fill="#ED893E"/>
<path opacity="0.4" d="M3893.24 1295.62C3895.18 1310.79 3879.61 1323.49 3858.65 1326.19C3837.7 1328.88 3817.94 1317.16 3815.98 1301.99" fill="#1C6758"/>
<path opacity="0.4" d="M3766.97 1309.75C3769.84 1324.79 3755.04 1338.4 3734.28 1342.35C3713.52 1346.29 3693.1 1335.79 3690.23 1320.75" fill="#1C6758"/>
<path d="M3726.03 1346.03C3728.39 1346.03 3730.79 1345.87 3733.2 1345.57C3744 1344.19 3753.8 1339.79 3760.78 1333.21C3768.05 1326.37 3771.46 1317.99 3770.38 1309.6C3771.26 1308.9 3778.81 1305.92 3791.78 1304.24C3804.83 1302.56 3812.91 1303.52 3814.29 1304.72C3816.15 1320.91 3836.39 1332.19 3859.04 1329.39C3869.85 1328 3879.64 1323.6 3886.64 1317.03C3893.9 1310.19 3897.32 1301.8 3896.24 1293.42L3889.87 1294.23C3890.68 1300.54 3887.96 1306.96 3882.23 1312.35C3876.21 1318 3867.68 1321.79 3858.22 1323C3839.12 1325.52 3822.05 1316.59 3820.33 1303.19C3819.38 1295.79 3803.86 1296.23 3791.04 1297.87C3778.18 1299.52 3763.05 1303.04 3764.01 1310.43C3764.82 1316.74 3762.1 1323.16 3756.39 1328.55C3750.37 1334.2 3741.84 1337.99 3732.37 1339.2C3722.92 1340.44 3713.7 1338.91 3706.44 1334.97C3699.54 1331.21 3695.28 1325.68 3694.48 1319.39L3694.07 1316.2L3529.47 1337.36L3530.29 1343.75L3688.74 1323.37C3690.63 1330.41 3695.72 1336.47 3703.38 1340.63C3709.94 1344.16 3717.79 1346.03 3726.03 1346.03Z" fill="#263238"/>
<path d="M3673.53 1259.9C3672.6 1259.87 3671.66 1259.62 3670.78 1259.11C3668.09 1257.53 3667.14 1254.07 3668.66 1251.41C3683.82 1224.68 3709.54 1223.33 3710.62 1223.29C3713.7 1223.16 3716.35 1225.58 3716.55 1228.69C3716.75 1231.78 3714.43 1234.4 3711.36 1234.53C3710.52 1234.57 3690.49 1235.84 3678.39 1257.17C3677.37 1258.97 3675.47 1259.94 3673.53 1259.9Z" fill="#263238"/>
<path d="M3859.28 1244.84C3857.48 1245 3855.63 1244.28 3854.38 1242.76C3838.48 1223.38 3818.49 1224.93 3817.65 1225C3814.59 1225.26 3811.82 1223 3811.46 1219.92C3811.1 1216.84 3813.26 1214.11 3816.31 1213.8C3817.42 1213.72 3843.02 1211.44 3862.92 1235.72C3864.91 1238.14 3864.62 1241.68 3862.26 1243.62C3861.38 1244.34 3860.34 1244.73 3859.28 1244.84Z" fill="#263238"/>
<path d="M3145.74 3895.04C3247.74 3370.88 3270.58 2960.89 3367.46 2762.39L3843.5 2815.45C3843.5 2815.45 3559.87 3596.61 3421.46 3929.98C3277.58 4276.61 2993.58 4868.79 2993.58 4868.79H2755.8C2755.8 4868.79 2977.76 4133.8 3145.74 3895.04Z" fill="#263238"/>
<path d="M4654.7 1910.58L4705.81 1878.04C4723.14 1867 4746.05 1869.67 4759.95 1884.32L4794.85 1921.13C4810.76 1937.9 4809.19 1964.19 4791.36 1979.39L4766.39 2000.68C4744.75 2019.14 4719.46 2032.84 4692.18 2040.89L4616.86 2063.1L4567.44 2010.05C4552.81 1954.12 4654.7 1910.58 4654.7 1910.58Z" fill="#FFB573"/>
<path d="M3893.04 1885.72C3911.69 1931.31 3929.98 1973.67 3949.89 2017.05C3969.75 2060.07 3989.99 2103.06 4012.19 2145.64C4034.3 2188.29 4058.18 2230.46 4085.09 2272.8C4098.7 2293.93 4113.24 2315.02 4129.94 2336.15C4146.87 2357.26 4165.27 2378.54 4191.3 2399.75C4204.5 2410.27 4219.85 2421 4240.55 2430.1C4246.06 2432.33 4251.31 2434.48 4257.48 2436.29L4266.77 2438.86C4270.2 2439.74 4276.29 2440.81 4280.99 2441.41C4300.66 2443.66 4316.64 2441.08 4329.58 2437.84C4355.3 2430.89 4370.9 2421.26 4385.36 2412.48C4399.52 2403.49 4411.13 2394.45 4422.01 2385.4C4464.58 2349.18 4496.51 2312.44 4527.96 2275.05C4559.05 2237.78 4588.36 2200.29 4616.45 2162.1C4644.8 2123.8 4671.73 2086.27 4699.4 2046.06L4551.97 1950.91C4505.79 2025.12 4452.98 2099.67 4397.9 2166.22C4370.18 2198.97 4340.7 2231.08 4312.93 2254.07C4306.13 2259.65 4299.47 2264.59 4294.17 2267.83C4289.19 2271.12 4284.27 2272.51 4287.68 2271.24C4289.49 2270.73 4293.91 2269.59 4302.16 2270.47C4304.02 2270.55 4307.25 2271.33 4307.89 2271.47C4308.24 2271.48 4308.58 2271.55 4308.9 2271.67C4309.54 2271.92 4309.54 2271.72 4309.69 2271.88C4309.41 2271.6 4305.57 2269.36 4301 2265.39C4291.55 2257.37 4279.49 2243.86 4268.19 2228.82C4256.75 2213.65 4245.51 2196.67 4234.67 2178.94C4212.86 2143.41 4193.21 2104.58 4174.38 2065.03C4155.72 2025.34 4137.77 1984.76 4121.38 1943.41C4105.08 1902.37 4088.79 1859.61 4075.39 1819.14L3893.04 1885.72Z" fill="#1C6758"/>
<g opacity="0.6">
<path d="M3893.04 1885.72C3911.69 1931.31 3929.98 1973.67 3949.89 2017.05C3969.75 2060.07 3989.99 2103.06 4012.19 2145.64C4034.3 2188.29 4058.18 2230.46 4085.09 2272.8C4098.7 2293.93 4113.24 2315.02 4129.94 2336.15C4146.87 2357.26 4165.27 2378.54 4191.3 2399.75C4204.5 2410.27 4219.85 2421 4240.55 2430.1C4246.06 2432.33 4251.31 2434.48 4257.48 2436.29L4266.77 2438.86C4270.2 2439.74 4276.29 2440.81 4280.99 2441.41C4300.66 2443.66 4316.64 2441.08 4329.58 2437.84C4355.3 2430.89 4370.9 2421.26 4385.36 2412.48C4399.52 2403.49 4411.13 2394.45 4422.01 2385.4C4464.58 2349.18 4496.51 2312.44 4527.96 2275.05C4559.05 2237.78 4588.36 2200.29 4616.45 2162.1C4644.8 2123.8 4671.73 2086.27 4699.4 2046.06L4551.97 1950.91C4505.79 2025.12 4452.98 2099.67 4397.9 2166.22C4370.18 2198.97 4340.7 2231.08 4312.93 2254.07C4306.13 2259.65 4299.47 2264.59 4294.17 2267.83C4289.19 2271.12 4284.27 2272.51 4287.68 2271.24C4289.49 2270.73 4293.91 2269.59 4302.16 2270.47C4304.02 2270.55 4307.25 2271.33 4307.89 2271.47C4308.24 2271.48 4308.58 2271.55 4308.9 2271.67C4309.54 2271.92 4309.54 2271.72 4309.69 2271.88C4309.41 2271.6 4305.57 2269.36 4301 2265.39C4291.55 2257.37 4279.49 2243.86 4268.19 2228.82C4256.75 2213.65 4245.51 2196.67 4234.67 2178.94C4212.86 2143.41 4193.21 2104.58 4174.38 2065.03C4155.72 2025.34 4137.77 1984.76 4121.38 1943.41C4105.08 1902.37 4088.79 1859.61 4075.39 1819.14L3893.04 1885.72Z" fill="white"/>
</g>
<path d="M3543.9 1681.08C3593.91 1773.81 3771.89 2129.97 3793.44 2349.39C3872.27 2149.94 3855.02 1707.07 3855.02 1707.07C3893.77 1708.1 3964.83 1725.31 4018.67 1746.41C4053.52 1760.08 4077.46 1793.29 4080.27 1830.48C4088.45 1938.65 4099.79 2196.17 4058.65 2516.73C4003.37 2947.34 3951.58 3616.92 3951.58 3616.92C3951.58 3616.92 3510.97 3598.57 3171.06 3526.86C3212.55 3197.75 3354.41 2646.05 3355.69 2498.28C3357.33 2308.17 3352.92 1936.45 3346.89 1781.3C3345.11 1735.39 3376.09 1696.15 3420.49 1687.04C3481.48 1674.53 3543.9 1681.08 3543.9 1681.08Z" fill="#1C6758"/>
<path opacity="0.7" d="M3543.9 1681.08C3593.91 1773.81 3771.89 2129.97 3793.44 2349.39C3872.27 2149.94 3855.02 1707.07 3855.02 1707.07C3893.77 1708.09 3964.83 1725.31 4018.67 1746.41C4053.52 1760.08 4077.46 1793.29 4080.27 1830.48C4088.45 1938.65 4099.79 2196.17 4058.65 2516.73C4003.37 2947.34 3951.58 3616.92 3951.58 3616.92C3951.58 3616.92 3510.97 3598.57 3171.06 3526.86C3212.55 3197.75 3354.41 2646.05 3355.69 2498.28C3357.33 2308.13 3352.92 1936.29 3346.89 1781.21C3345.17 1736.92 3373.62 1697.32 3416.31 1687.94C3478.59 1674.23 3543.9 1681.08 3543.9 1681.08Z" fill="white"/>
<path d="M3647.78 3545.51C3724.28 3123.34 3785.01 2503.82 3789.95 2429.24L3783.03 2428.77C3778.09 2503.3 3717.4 3122.37 3640.95 3544.28L3647.78 3545.51Z" fill="white"/>
<path d="M3685.95 2794.44H4092.22C4108.16 2794.44 4124.01 2781.4 4127.44 2765.46L4263.37 2133.93C4266.8 2117.99 4256.57 2104.95 4240.63 2104.95H3834.36C3818.42 2104.95 3802.57 2117.99 3799.14 2133.93L3663.21 2765.46C3659.78 2781.4 3670.02 2794.44 3685.95 2794.44Z" fill="white"/>
<path d="M3698.56 2800.23H4111.64C4127.85 2800.23 4143.97 2786.96 4147.45 2770.75L4285.66 2128.63C4289.16 2112.42 4278.75 2099.15 4262.53 2099.15H3849.46C3833.24 2099.15 3817.12 2112.42 3813.65 2128.63L3675.43 2770.75C3671.94 2786.96 3682.35 2800.23 3698.56 2800.23Z" fill="#1C6758"/>
<path d="M3651.19 2437.38L3754.01 2433.54C3766.38 2433.08 3778.71 2435.22 3790.21 2439.85L3843.28 2461.17C3865.01 2469.9 3874.88 2494.31 3865.15 2515.28L3843.79 2561.29C3835.28 2579.61 3814.42 2589.42 3794.47 2584.49L3735.64 2569.92C3735.64 2569.92 3625.2 2561.09 3621.25 2503.43L3651.19 2437.38Z" fill="#FFB573"/>
<path d="M3367.41 1738.19C3341.89 1777.59 3318.67 1814.75 3295.63 1853.91C3272.67 1892.7 3250.17 1931.95 3228.95 1972.51C3207.85 2013.21 3187.58 2054.83 3169.34 2099.64C3160.38 2122.25 3151.98 2145.7 3145.02 2171.53C3138.38 2197.65 3131.93 2225.31 3133.28 2263.15L3133.41 2266.63L3133.49 2268.36C3133.49 2268.77 3133.54 2269.56 3133.7 2270.99C3134.22 2275.8 3134.97 2280.64 3135.9 2285.37C3136.91 2289.61 3138.09 2293.84 3139.39 2298C3140.71 2302.12 3142.13 2305.37 3143.65 2309.05C3149.66 2322.65 3156.7 2333.27 3163.09 2341.33C3176.31 2358.15 3188.43 2368.42 3200.08 2378.17C3223.32 2396.87 3245 2410.02 3266.53 2422.28C3309.43 2446.3 3351.43 2465.02 3393.53 2482.78C3435.46 2500.67 3477.39 2516.92 3519.5 2532.28C3561.77 2547.97 3603.11 2562.38 3646.9 2577.08L3697.67 2409.11C3658.2 2398.13 3616.93 2384.75 3577.12 2371.16C3537.19 2357.15 3497.68 2342.35 3459.27 2326.5C3421.13 2310.36 3383.69 2292.88 3350.69 2274.03C3334.4 2264.71 3319.02 2254.65 3308.4 2245.87C3303.31 2241.75 3299.17 2237.27 3299.17 2236.74C3298.75 2236.3 3300.15 2237.48 3301.74 2241.15C3302.3 2242.28 3302.48 2243.08 3303.04 2244.59C3303.63 2246.12 3304.06 2247.73 3304.34 2249.35C3304.88 2251.39 3305.23 2253.52 3305.36 2255.64C3305.4 2256.4 3305.42 2256.49 3305.43 2256.23L3305.47 2255.93L3305.54 2255.33C3305.46 2249.53 3307.88 2233.95 3312.76 2218.19C3317.56 2202.07 3324.22 2184.55 3331.78 2166.85C3347.11 2131.24 3366.21 2094.99 3386.96 2059.26C3407.77 2023.49 3429.82 1987.81 3453.19 1952.82C3476.49 1918.18 3501.2 1882.53 3525.65 1850.56L3367.41 1738.19Z" fill="#1C6758"/>
<g opacity="0.7">
<path d="M3367.41 1738.19C3341.89 1777.59 3318.67 1814.75 3295.63 1853.91C3272.67 1892.7 3250.17 1931.95 3228.95 1972.51C3207.85 2013.21 3187.58 2054.83 3169.34 2099.64C3160.38 2122.25 3151.98 2145.7 3145.02 2171.53C3138.38 2197.65 3131.93 2225.31 3133.28 2263.15L3133.41 2266.63L3133.49 2268.36C3133.49 2268.77 3133.54 2269.56 3133.7 2270.99C3134.22 2275.8 3134.97 2280.64 3135.9 2285.37C3136.91 2289.61 3138.09 2293.84 3139.39 2298C3140.71 2302.12 3142.13 2305.37 3143.65 2309.05C3149.66 2322.65 3156.7 2333.27 3163.09 2341.33C3176.31 2358.15 3188.43 2368.42 3200.08 2378.17C3223.32 2396.87 3245 2410.02 3266.53 2422.28C3309.43 2446.3 3351.43 2465.02 3393.53 2482.78C3435.46 2500.67 3477.39 2516.92 3519.5 2532.28C3561.77 2547.97 3603.11 2562.38 3646.9 2577.08L3697.67 2409.11C3658.2 2398.13 3616.93 2384.75 3577.12 2371.16C3537.19 2357.15 3497.68 2342.35 3459.27 2326.5C3421.13 2310.36 3383.69 2292.88 3350.69 2274.03C3334.4 2264.71 3319.02 2254.65 3308.4 2245.87C3303.31 2241.75 3299.17 2237.27 3299.17 2236.74C3298.75 2236.3 3300.15 2237.48 3301.74 2241.15C3302.3 2242.28 3302.48 2243.08 3303.04 2244.59C3303.63 2246.12 3304.06 2247.73 3304.34 2249.35C3304.88 2251.39 3305.23 2253.52 3305.36 2255.64C3305.4 2256.4 3305.42 2256.49 3305.43 2256.23L3305.47 2255.93L3305.54 2255.33C3305.46 2249.53 3307.88 2233.95 3312.76 2218.19C3317.56 2202.07 3324.22 2184.55 3331.78 2166.85C3347.11 2131.24 3366.21 2094.99 3386.96 2059.26C3407.77 2023.49 3429.82 1987.81 3453.19 1952.82C3476.49 1918.18 3501.2 1882.53 3525.65 1850.56L3367.41 1738.19Z" fill="white"/>
</g>
<path d="M3502.3 2200.78C3504.05 2200.78 3505.77 2199.93 3506.77 2198.33C3508.34 2195.86 3507.61 2192.58 3505.14 2191.02L3484.31 2177.78C3444.4 2152.43 3424.54 2106.04 3433.68 2059.67L3475.53 1847.63C3483.61 1806.7 3516.89 1790.9 3542.94 1789.81C3569.06 1788.73 3603.48 1801.69 3614.95 1841.79L3674.33 2049.62C3687.31 2095.07 3671.38 2142.93 3633.73 2171.54L3614.08 2186.47C3611.76 2188.25 3611.31 2191.57 3613.07 2193.9C3614.83 2196.23 3618.13 2196.67 3620.48 2194.91L3640.13 2179.98C3681.27 2148.71 3698.7 2096.4 3684.49 2046.72L3625.1 1838.88C3614.28 1801.01 3581.74 1777.86 3542.49 1779.24C3503.13 1780.89 3472.76 1806.93 3465.15 1845.56L3423.3 2057.61C3413.3 2108.31 3435.02 2158.98 3478.63 2186.72L3499.46 2199.95C3500.36 2200.53 3501.33 2200.78 3502.3 2200.78Z" fill="#263238"/>
<path d="M3470.35 1851.88C3470.43 1851.88 3470.49 1851.88 3470.57 1851.88L3620.27 1845.62C3623.18 1845.5 3625.45 1843.03 3625.33 1840.11C3625.21 1837.19 3622.65 1835.28 3619.83 1835.04L3470.13 1841.31C3467.21 1841.43 3464.95 1843.9 3465.07 1846.82C3465.19 1849.65 3467.52 1851.88 3470.35 1851.88Z" fill="#263238"/>
<path d="M3543.1 1789.8C3545.97 1789.8 3548.32 1787.52 3548.38 1784.64C3549 1758.57 3556.72 1711.72 3581.67 1701.5C3584.37 1700.39 3585.67 1697.3 3584.56 1694.59C3583.45 1691.89 3580.36 1690.59 3577.66 1691.7C3540.7 1706.86 3537.98 1776.48 3537.79 1784.37C3537.73 1787.3 3540.03 1789.72 3542.95 1789.78C3543.01 1789.8 3543.06 1789.8 3543.1 1789.8Z" fill="#263238"/>
<path d="M4001.07 1970.98C4001.41 1970.98 4001.76 1970.95 4002.12 1970.87C4004.99 1970.3 4006.84 1967.51 4006.27 1964.64C3988.72 1877.05 3915.9 1738.69 3851.79 1698.26C3849.3 1696.72 3846.04 1697.44 3844.5 1699.91C3842.94 1702.39 3843.67 1705.66 3846.15 1707.22C3908.13 1746.32 3978.76 1881.16 3995.89 1966.74C3996.4 1969.24 3998.6 1970.98 4001.07 1970.98Z" fill="#263238"/>
<path d="M3957.3 1984.76C3965.62 2005.97 3983.71 2018.72 3997.71 2013.23C4011.69 2007.73 4016.29 1986.08 4007.96 1964.87C3999.64 1943.66 3981.55 1930.91 3967.55 1936.41C3953.55 1941.91 3948.97 1963.56 3957.3 1984.76Z" fill="white"/>
<path d="M3605.4 2191.19C3605.81 2201.15 3611.48 2209.01 3618.05 2208.74C3624.63 2208.47 3629.61 2200.17 3629.2 2190.21C3628.79 2180.25 3623.12 2172.4 3616.55 2172.66C3609.97 2172.93 3604.97 2181.24 3605.4 2191.19Z" fill="white"/>
<path d="M3490.41 2195.99C3490.83 2205.95 3496.49 2213.8 3503.06 2213.54C3509.64 2213.26 3514.62 2204.97 3514.21 2195.01C3513.8 2185.05 3508.13 2177.2 3501.56 2177.46C3494.99 2177.73 3490 2186.03 3490.41 2195.99Z" fill="white"/>
<path d="M1229.65 2011.19L1242.96 2010.31C1238.98 1951.47 1258.44 1895.94 1297.71 1853.93C1336.9 1812.01 1390.78 1788.93 1449.46 1788.93V1775.6C1387.06 1775.6 1329.71 1800.18 1287.98 1844.82C1246.16 1889.54 1225.44 1948.63 1229.65 2011.19Z" fill="#1C6758"/>
<path d="M1247.06 2071.45L1254.39 2181.56L1241.09 2182.44L1233.76 2072.34L1247.06 2071.45Z" fill="#1C6758"/>
<path d="M1449.47 1822.23H2368.84C2471.03 1822.23 2560.29 1905.84 2567.2 2008.03L2575.57 2131.89C2582.48 2234.08 2504.51 2317.69 2402.32 2317.69H1482.95L1304.58 2427.8L1276.22 2008.03C1269.31 1905.85 1347.28 1822.23 1449.47 1822.23Z" fill="#1C6758"/>
<path d="M1496.13 1999.63H2348.22V2030.58H1496.13V1999.63Z" fill="white"/>
<path d="M1503.55 2109.36H2136.18V2140.32H1503.55V2109.36Z" fill="white"/>
<path d="M2833.31 2484.79H1893.11C1788.61 2484.79 1708.87 2570.3 1715.92 2674.8L1724.48 2801.47C1731.55 2905.98 1822.83 2991.47 1927.33 2991.47H2867.53L3065.15 3104.08L3036.15 2674.8C3029.1 2570.3 2937.81 2484.79 2833.31 2484.79Z" fill="white"/>
<path opacity="0.15" d="M2833.31 2484.79H1893.11C1788.61 2484.79 1708.87 2570.3 1715.92 2674.8L1724.48 2801.47C1731.55 2905.98 1822.83 2991.47 1927.33 2991.47H2867.53L3065.15 3104.08L3036.15 2674.8C3029.1 2570.3 2937.81 2484.79 2833.31 2484.79Z" fill="#1C6758"/>
<path opacity="0.5" d="M1940.84 2666.21H2812.21V2697.88H1940.84V2666.21Z" fill="#1C6758"/>
<path opacity="0.5" d="M2475.47 2778.41H2819.8V2810.08H2475.47V2778.41Z" fill="#1C6758"/>
<path opacity="0.5" d="M2171.1 2778.41H2391.03V2810.08H2171.1V2778.41Z" fill="#1C6758"/>
</svg>
