<svg width="580" height="553" viewBox="0 0 580 553" fill="none" xmlns="http://www.w3.org/2000/svg">
<path d="M410.949 316.604C405.013 321.993 398.328 322.891 392.534 319.258C387.402 316.041 384.863 309.39 386.488 303.421C388.685 295.348 397.183 290.999 405.091 293.902C412.748 296.713 416.459 305.453 413.137 312.974C412.605 314.177 411.801 315.26 410.949 316.604Z" fill="#008080"/>
<path d="M261.994 413.823C241.913 390.232 230.241 363.284 226.928 332.727C226.837 331.889 226.458 331.047 226.523 330.231C226.969 324.7 224.99 320.804 220.094 317.696C215.943 315.06 214.433 310.18 214.138 305.361C213.973 302.666 212.89 301.601 210.521 300.844C183.238 292.122 165.828 273.177 155.271 247.211C153.173 242.049 152.686 236.893 156.055 231.997C157.425 230.005 156.246 228.246 155.591 226.512C150.422 212.816 146.336 198.813 143.379 184.474C138.604 161.323 136.337 137.948 137.169 114.311C137.317 110.106 137.675 105.844 138.56 101.742C141.064 90.1383 150.935 81.6953 162.815 80.629C165.578 80.381 168.353 80.2535 171.123 80.082C172.083 80.0225 173.056 80.0866 173.893 79.4505C182.584 72.8469 192.874 72.9674 202.963 73.0079C208.812 73.0314 211.857 76.7587 212.112 82.6583C212.242 85.659 212.472 88.7038 211.543 91.6585C210.401 95.2887 207.646 97.5788 203.858 97.7466C196.224 98.0849 188.641 97.7322 181.266 95.4798C178.728 94.705 176.121 93.9959 174.358 91.7654C173.402 90.5561 172.071 90.6142 170.729 90.5787C155.509 90.1761 148.142 97.1301 147.706 112.433C147.217 129.599 148.002 146.679 150.426 163.717C153.242 183.52 158.09 202.757 164.941 221.529C166.092 224.683 167.5 226.827 171.156 227.648C175.629 228.654 177.918 232.41 179.62 236.45C183.07 244.637 187.407 252.299 193.54 258.796C205.858 271.846 220.684 279.807 238.964 277.596C256.022 275.533 269.207 266.146 279.179 252.24C282.934 247.003 285.749 241.242 288.31 235.373C290.242 230.946 293.239 227.953 298.009 226.991C300.079 226.574 300.959 225.242 301.69 223.463C309.528 204.391 314.822 184.653 317.773 164.239C319.886 149.62 320.926 134.961 320.539 120.206C320.419 115.623 320.273 111.004 319.604 106.48C318.145 96.6098 311.35 91.1702 300.201 90.6019C297.226 90.4502 294.683 90.7552 291.915 92.9038C287.157 96.5975 280.939 97.0636 275.052 97.6543C271.579 98.0027 268.045 97.874 264.545 97.7628C259.554 97.6042 256.207 94.2237 256.018 89.2809C255.931 86.9878 255.946 84.6876 256.005 82.3928C256.142 76.9946 258.552 73.5901 263.835 73.2728C274.224 72.6488 284.631 72.8832 293.674 79.2547C295.25 80.3648 296.902 80.0394 298.551 80.0695C306.066 80.2069 313.217 81.6053 319.385 86.2165C326.693 91.6798 329.685 99.3544 330.399 108.158C331.811 125.564 331.125 142.928 328.902 160.21C325.965 183.043 320.589 205.289 311.754 226.613C310.783 228.955 310.357 230.824 312.026 233.241C314.242 236.449 314.459 240.297 313.133 244.03C303.038 272.432 284.441 292.298 255.213 301.33C252.694 302.109 251.43 302.901 251.294 305.866C251.002 312.212 247.714 317.076 242.273 320.287C240.297 321.453 239.611 322.845 239.797 324.995C242.662 358.166 254.353 387.483 278.573 410.863C289.92 421.816 304.093 426.878 319.985 425.8C330.42 425.092 339.681 420.862 347.49 413.981C368.285 395.658 382.782 373.507 388.324 345.947C388.97 342.736 388.157 341.515 385.318 340.287C370.781 334.001 363.108 322.681 362.744 306.969C362.313 288.419 376.434 273.022 395.162 270.791C412.897 268.679 430.128 281.159 434.114 299.002C438.436 318.348 426.556 337.24 406.878 342.012C403.893 342.736 402.554 343.891 401.936 347.069C395.873 378.25 380.173 403.846 356.28 424.532C346.312 433.163 334.67 438.359 321.518 439.322C297.487 441.082 278.07 431.545 261.994 413.823ZM391.223 285.714C382.469 288.51 374.611 299.514 376.724 310.452C378.927 321.857 389.074 330.283 400.116 329.368C411.929 328.39 421.174 318.841 421.343 307.158C421.546 293.093 407.723 280.576 391.223 285.714Z" fill="#004040"/>
</svg>
