<svg width="213" height="165" viewBox="0 0 213 165" fill="none" xmlns="http://www.w3.org/2000/svg">
<path d="M90.3354 97.8091L97.2495 102.511C97.5978 102.747 98.0763 102.655 98.31 102.308C98.5483 101.96 98.4539 101.487 98.1069 101.249L96.4507 100.122C96.5301 100.048 96.5991 99.9654 96.6616 99.8775L101.589 92.6282C102.027 91.9908 101.874 91.1262 101.247 90.6991L99.7208 89.6581C99.0997 89.2324 98.2365 89.4081 97.8035 90.0514L92.8712 97.2981C92.8061 97.3912 92.7632 97.4862 92.7254 97.5839L91.1974 96.5461C90.8465 96.3059 90.3693 96.3996 90.1317 96.746C89.8941 97.0949 89.9878 97.5702 90.3354 97.8091Z" fill="#008080"/>
<path d="M93.965 87.2939L99.8634 91.3056L105.758 95.3199C106.828 96.0464 108.028 95.1174 107.534 93.9175C105.542 89.0829 104.65 87.7014 103.053 86.6135C101.454 85.5289 99.8413 85.2125 94.6167 85.1331C93.3211 85.1109 92.8947 86.5699 93.965 87.2939Z" fill="#008080"/>
<path d="M128.437 43.4354C128.861 42.811 129.711 42.6515 130.333 43.0734L133.388 45.1535C134.014 45.5799 134.175 46.4269 133.749 47.0551L130.61 51.6729C130.185 52.2947 129.335 52.4614 128.711 52.0336L125.655 49.9542C125.03 49.531 124.868 48.6814 125.29 48.0571L128.437 43.4354Z" fill="#008080"/>
<path d="M132.935 40.3711C133.222 40.1387 133.64 40.1107 133.961 40.3269L134.744 40.8646C135.072 41.084 135.197 41.502 135.068 41.8614C135.046 41.9297 133.566 45.3255 133.566 45.3255C133.303 45.7207 132.764 45.8229 132.378 45.5566L130.464 44.2533C130.075 43.987 129.97 43.4531 130.237 43.0645C130.237 43.0645 132.875 40.4206 132.935 40.3711Z" fill="#008080"/>
<path d="M133.918 40.606L134.509 41.0025L143.626 27.1796H143.625C143.652 27.1249 143.641 27.0566 143.588 27.0208C143.535 26.9836 143.467 26.9993 143.426 27.0442H143.422L133.918 40.606Z" fill="#334F70"/>
<path d="M133.739 40.1767C133.834 40.038 134.019 40.0035 134.16 40.0986L134.883 40.5907C135.026 40.6858 135.06 40.872 134.963 41.0113C134.872 41.1526 134.683 41.1858 134.551 41.092L133.815 40.5979C133.679 40.5028 133.642 40.3153 133.739 40.1767Z" fill="#334F70"/>
<path d="M124.945 49.7402L129.309 52.7057L128.029 54.5774L123.672 51.6094L124.945 49.7402Z" fill="#008080"/>
<path d="M123.233 48.0858C123.465 47.7349 123.943 47.647 124.292 47.8873L131.201 52.5871C131.547 52.8234 131.645 53.3 131.406 53.6483C131.167 53.9953 130.699 54.0864 130.344 53.8501L123.431 49.1457C123.082 48.9107 122.992 48.4393 123.233 48.0858Z" fill="#008080"/>
<path d="M98.349 85.2762L121.374 51.1735C121.868 50.4398 122.87 50.2458 123.599 50.7412L128.894 54.3421C129.629 54.844 129.811 55.844 129.323 56.5732L106.198 90.8198L98.349 85.2762Z" fill="#C1D5E8"/>
<path d="M123.176 65.7112L129.323 56.5732C129.811 55.844 129.63 54.8447 128.895 54.3421L123.599 50.7412C122.87 50.2458 121.869 50.4398 121.374 51.1735L115.191 60.329L123.176 65.7112Z" fill="#4C4C4C"/>
<path d="M124.675 56.8758C124.539 57.0789 124.59 57.3556 124.792 57.491L127.473 59.3159L127.971 58.5744L125.29 56.7534C125.092 56.6206 124.811 56.6707 124.675 56.8758Z" fill="#334F70"/>
<path d="M121.975 60.8476C121.833 61.0507 121.889 61.3235 122.094 61.4628L124.787 63.2935L125.285 62.552L122.596 60.7271C122.384 60.5885 122.114 60.6431 121.975 60.8476Z" fill="#334F70"/>
<path d="M119.274 64.8175C119.135 65.0174 119.186 65.2967 119.39 65.4288L122.098 67.2706L122.595 66.5337L119.895 64.6938C119.689 64.559 119.411 64.6105 119.274 64.8175Z" fill="#334F70"/>
<path d="M116.572 68.7834C116.437 68.9924 116.484 69.2704 116.689 69.4078L119.409 71.2567L119.908 70.5139L117.197 68.6727C116.989 68.5256 116.712 68.5816 116.572 68.7834Z" fill="#334F70"/>
<path d="M113.871 72.757C113.732 72.9621 113.784 73.2336 113.991 73.3788L116.719 75.2381L117.22 74.4946L114.493 72.6346C114.289 72.5031 114.008 72.5558 113.871 72.757Z" fill="#334F70"/>
<path d="M111.173 76.7262C111.031 76.9325 111.081 77.2112 111.286 77.3479L114.033 79.2144L114.529 78.4755L111.793 76.6116C111.585 76.4723 111.309 76.5237 111.173 76.7262Z" fill="#334F70"/>
<path d="M108.473 80.7032C108.331 80.9018 108.379 81.1837 108.586 81.3243L111.345 83.1993L111.844 82.4591L109.089 80.5834C108.888 80.4493 108.606 80.4962 108.473 80.7032Z" fill="#334F70"/>
<path fill-rule="evenodd" clip-rule="evenodd" d="M54.4646 33.6212C49.9566 34.5324 45.9727 35.8535 41.9269 37.5397C39.5033 38.5502 38.0651 39.7146 37.9231 42.8492C37.8502 44.4537 38.1291 46.2554 38.4456 47.8989C39.3185 52.4496 40.5594 57.0739 41.5795 61.392C43.1177 67.9012 44.9077 73.4616 45.8446 79.3276C44.8378 79.5977 43.8736 79.9098 42.7976 80.1107C39.8499 72.1641 37.0671 63.0046 34.8753 53.731C34.1385 50.6125 33.2458 47.3366 33.0478 44.1549C32.9874 43.176 32.9808 42.3863 33.0478 41.4567C33.3827 36.7831 37.0627 34.4308 40.7957 33.0118C44.8996 31.4522 49.4878 30.9231 54.2895 30.3129C54.6825 29.1728 54.5544 26.8839 55.7696 27.0046C57.1695 27.143 57.2497 29.5732 57.2497 31.7054C57.2497 33.8936 57.1209 36.4423 55.682 36.3209C54.5883 36.2289 54.7362 34.7193 54.4646 33.6212Z" fill="#C1D5E8"/>
<path fill-rule="evenodd" clip-rule="evenodd" d="M68.5046 33.6212C73.0118 34.5324 76.9943 35.8535 81.0401 37.5397C83.4638 38.5502 84.9034 39.7146 85.0447 42.8492C85.1168 44.4537 84.8386 46.2554 84.5214 47.8989C83.647 52.4496 82.4098 57.0739 81.3868 61.392C79.8493 67.9012 78.0593 73.4616 77.1217 79.3276C78.1293 79.5977 79.0941 79.9098 80.1694 80.1107C83.1171 72.1641 85.8999 63.0046 88.0925 53.731C88.8292 50.6125 89.7212 47.3366 89.92 44.1549C89.9796 43.176 89.9869 42.3863 89.92 41.4567C89.5851 36.7831 85.9066 34.4308 82.1721 33.0118C78.0696 31.4522 73.4799 30.9231 68.679 30.3129C68.2845 29.1728 68.4141 26.8839 67.1982 27.0046C65.7976 27.143 65.7181 29.5732 65.7181 31.7054C65.7181 33.8936 65.8476 36.4423 67.2865 36.3209C68.3787 36.2289 68.233 34.7193 68.5046 33.6212Z" fill="#C1D5E8"/>
<path fill-rule="evenodd" clip-rule="evenodd" d="M75.6195 76.9766C78.3309 77.1687 80.9908 77.4093 83.6286 77.6728C82.1118 89.2442 76.9553 97.1761 66.8265 100.135C67.8783 105.326 68.7578 110.186 70.483 114.587C72.1434 118.817 74.4294 122.715 77.0128 126.079C79.6572 129.521 82.5085 132.355 86.7626 134.35C90.8761 136.276 96.7457 136.686 101.91 134.958C106.352 133.473 109.577 130.545 112.097 127.122C114.735 123.54 116.005 119.017 116.711 113.715C117.079 110.947 117.247 108.274 117.843 105.792C119.55 98.6989 122.428 92.5761 130.467 91.4279C130.607 91.9446 130.708 92.451 130.815 92.9949C130.909 93.485 131.171 94.1673 131.076 94.5626C130.953 95.0711 130.094 95.392 129.682 95.6945C129.099 96.1243 128.78 96.5733 128.291 96.8257C125.165 100.202 123.417 105.009 122.545 110.495C122.071 113.459 121.955 116.302 121.412 119.026C120.904 121.575 119.933 123.934 118.887 126.165C116.861 130.487 113.861 133.95 110.094 136.786C106.356 139.601 102.015 141.689 95.992 142.01C86.7773 142.499 79.5519 138.591 74.7488 134.175C69.8198 129.644 65.8351 123.434 63.605 116.24C62.0977 111.379 60.7457 106.11 60.1223 100.397C54.6133 99.429 50.6036 96.6204 47.4992 93.1708C44.433 89.7631 41.9571 85.3464 40.9701 79.9375C43.566 79.2287 46.1994 78.5509 48.98 78.0224C50.2783 82.7269 52.1234 86.9376 55.2478 90.0361C56.7058 91.4839 58.7062 92.8977 60.9944 93.4321C63.4505 94.0061 66.1074 93.5366 68.219 92.1264C72.532 89.2464 74.765 83.8471 75.4458 77.2393C75.4407 77.0899 75.5106 77.0126 75.6195 76.9766Z" fill="#008080"/>
<path fill-rule="evenodd" clip-rule="evenodd" d="M135.026 82.8974C138.745 82.6221 141.712 84.3988 143.557 86.4685C145.169 88.2724 146.518 91.0442 146.518 93.9536C146.518 97.334 144.992 99.8887 143.035 101.791C141.227 103.547 138.391 105.124 135.81 105.533C131.209 106.26 127.342 103.253 125.625 99.9615C125.057 98.8767 124.539 97.758 124.406 96.3058C123.847 90.2073 126.911 85.6655 130.761 83.8564C131.877 83.3287 133.342 83.0225 135.026 82.8974Z" fill="#565656"/>
<path fill-rule="evenodd" clip-rule="evenodd" d="M134.732 87.0759C137.598 86.674 139.689 88.1622 140.913 89.9485C141.12 90.2525 141.461 90.6646 141.697 91.2549C143.414 95.5539 140.565 100.357 135.95 100.396C132.325 100.425 129.117 98.0688 128.725 94.5625C128.44 92.0226 129.74 90.0825 131.076 88.8173C131.919 88.018 133.42 87.2606 134.732 87.0759Z" fill="#BAB9BA"/>
</svg>
