<svg width="162" height="125" viewBox="0 0 162 125" fill="none" xmlns="http://www.w3.org/2000/svg">
<g clip-path="url(#clip0_108_538)">
<path d="M81.2674 0.971588C80.3585 1.28671 80.1981 1.89071 80.1981 5.38335C80.1981 8.35079 80.2783 8.90226 80.6793 9.26991C80.9733 9.53251 82.203 9.79511 84.3416 10.0315L87.5496 10.3728L87.6298 45.3256L87.6832 80.2783L83.3525 81.3812C80.9466 81.9852 78.7812 82.563 78.5406 82.6155C78.0862 82.7468 78.0595 82.3004 78.0595 75.9716C78.0595 72.2426 77.9258 68.4348 77.7921 67.542C77.0971 63.4453 75.4397 61.7121 68.0882 57.4054C65.1743 55.7247 62.4208 53.9915 61.9397 53.5714L61.0842 52.8361L61.004 33.7972L60.9506 14.7846L61.5119 14.0493C62.207 13.209 65.0406 11.8172 66.0832 11.8172C67.7139 11.8172 67.6337 10.8718 67.6337 31.0924C67.6337 48.6344 67.6604 49.5798 68.1149 49.9737C68.5159 50.3413 69.2377 50.4201 72.3654 50.4201C75.6535 50.4201 76.1614 50.3676 76.5357 49.9474C76.9634 49.501 76.9902 47.4789 76.9902 26.2342C76.9902 5.6197 76.9367 2.94112 76.5624 2.41592C75.1723 0.446381 71.0555 0.603943 64.1585 2.8886C60.309 4.17537 56.9674 5.67222 54.5614 7.19533C53.0377 8.1407 52.61 8.58714 52.0218 9.76885L51.3001 11.1869L51.3803 33.771L51.4604 56.3287L52.209 57.8256C53.3585 60.1102 55.4436 61.8172 61.6991 65.4674C68.9704 69.7216 68.4357 68.7499 68.4357 77.9149V84.8214L67.8476 84.9527C67.5001 85.0314 65.7624 85.3728 63.9713 85.7142L60.71 86.3182L60.6298 79.648C60.5496 73.3718 60.5228 72.9254 60.0416 72.584C59.6406 72.3214 58.5981 72.2163 55.8713 72.2163C52.6634 72.2163 52.1555 72.2688 51.7812 72.689C51.3803 73.1092 51.3268 74.0546 51.3268 80.4359V87.71L50.7387 87.8413C49.6961 88.0514 45.9803 88.4978 45.1515 88.4978H44.3763V51.8644C44.3763 25.3676 44.2961 15.0735 44.0822 14.6008C43.708 13.7867 42.9327 13.5766 41.8634 14.0231C39.6981 14.9159 33.3357 20.8508 29.8872 25.21C20.5307 37.0798 15.9327 51.2604 16.8416 65.4149C17.2426 71.4285 18.0446 75.7352 19.6486 80.3308C20.6109 83.1144 20.905 83.5083 22.1614 83.5083C23.3644 83.5083 27.6951 82.0903 28.4169 81.46C29.0585 80.9086 29.005 80.1995 27.9357 76.0504C27.0268 72.5577 26.1179 67.043 26.3852 66.6228C26.4387 66.5178 28.3634 66.439 30.6357 66.439H34.7525V78.0199V89.6008L27.8555 89.4695C20.8248 89.3382 18.7129 89.1018 14.4624 87.9726C11.3614 87.1323 8.26045 85.5567 6.60302 83.9548C4.65154 82.0903 3.95649 80.6985 3.79609 78.3613C3.5555 74.7636 5.26639 71.4548 9.24956 67.8046C10.4793 66.6491 11.4951 65.5199 11.4951 65.2836C11.4951 64.4957 10.4793 64.8371 8.36738 66.3865C3.12778 70.2205 0.481241 74.8686 0.882231 79.5693C1.52382 87.001 9.08916 91.938 21.8406 93.251C25.8505 93.6449 37.9872 93.4085 43.307 92.8308C75.6803 89.3119 114.175 78.1249 137.326 65.5199C150.104 58.5609 157.883 51.8119 160.423 45.4831C161.358 43.2247 161.305 39.9947 160.343 38.1827C158.819 35.3466 155.317 32.9831 151.04 31.9327C148.5 31.3025 142.833 30.8035 142.458 31.1712C141.897 31.7226 142.405 32.3004 143.474 32.3004C145.052 32.3004 149.142 33.0094 150.772 33.5609C156.039 35.3466 158.498 38.1302 158.204 42.0168C157.99 45.0367 155.424 48.7394 151.066 52.3371C148.42 54.5168 145.185 56.8277 145.025 56.6701C144.971 56.6176 144.704 55.2258 144.463 53.5714C143.314 45.6144 140.427 38.0777 136.016 31.4338C133.877 28.23 133.503 27.8361 132.434 27.8361C131.311 27.8361 131.338 27.7573 128.584 35.3203C127.381 38.6291 126.312 41.439 126.205 41.5441C126.125 41.6491 122.676 34.1123 118.586 24.8161C114.469 15.4936 110.887 7.64175 110.62 7.35289C110.058 6.77516 108.829 6.64386 108.321 7.14281C108.08 7.37915 108 15.1785 108 40.6249V73.7657L107.278 74.1596C106.583 74.501 97.5476 77.4684 97.2001 77.4684C97.1199 77.4684 97.0397 62.8151 97.0397 44.9054C97.0397 26.9957 97.1199 12.3424 97.2001 12.3424C97.2803 12.3424 98.7238 12.7626 100.408 13.2615C103.322 14.1281 104.151 14.1806 104.578 13.5504C104.685 13.3928 104.792 11.6071 104.792 9.55877C104.792 5.38335 104.819 5.43587 102.654 4.51675C98.1357 2.626 83.4862 0.183777 81.2674 0.971588ZM34.7525 45.5619V57.2478H30.4753C28.1228 57.2478 26.1981 57.1691 26.1981 57.0378C26.1981 56.9327 26.3852 55.6722 26.5991 54.2541C27.4278 48.897 29.2991 43.1197 31.5981 38.8655C32.5872 37.0273 34.5387 33.876 34.6991 33.876C34.7258 33.876 34.7525 39.1281 34.7525 45.5619ZM123.371 57.6418C125.323 61.502 125.857 62.001 126.766 61.0031C127.007 60.7405 128.424 57.6418 129.921 54.0966C131.418 50.5514 132.701 47.6102 132.781 47.5315C132.968 47.3214 133.343 48.0829 134.038 50.1838C134.813 52.4947 135.401 55.9348 135.668 59.6638L135.856 62.2111L131.739 64.1806C127.461 66.2027 124.28 67.6207 120.11 69.3277L117.624 70.3518V58.2195V46.0871L119.549 50.0262C120.618 52.1796 122.329 55.6197 123.371 57.6418Z" fill="#004040"/>
<path d="M142.94 67.0167C141.817 67.6995 139.598 68.96 138.021 69.8004L135.187 71.2972L134.572 74.0546C133.022 80.8035 130.455 86.4495 125.483 93.96C124.387 95.5882 123.505 97.2163 123.505 97.5314C123.505 98.3455 123.986 98.8707 126.526 100.814C129.493 103.072 129.894 103.046 131.979 100.368C138.128 92.5157 142.057 84.1911 143.929 75.0525C144.543 72.1113 145.319 65.9663 145.105 65.8088C145.051 65.7562 144.089 66.3077 142.94 67.0167Z" fill="#004040"/>
<path d="M112.759 80.5935L108 82.2741V99.6849C108 118.75 107.92 117.91 109.551 117.91C111.208 117.883 116.608 114.837 117.223 113.55C117.57 112.815 117.624 110.557 117.57 95.7983L117.49 78.8865L112.759 80.5935Z" fill="#004040"/>
<path d="M92.2811 87.0011L87.6831 88.3141L87.7366 105.672L87.8168 123.004L88.5386 123.398C89.1534 123.74 89.5277 123.74 91.3455 123.451C94.2593 122.978 95.9702 122.348 96.5584 121.586C97.0128 120.956 97.0395 120.063 96.9861 103.309L96.9059 85.688L92.2811 87.0011Z" fill="#004040"/>
<path d="M73.1942 91.7805L68.4358 92.8046V102.679C68.4358 113.892 68.4893 113.603 66.5111 113.55C64.1051 113.472 61.6992 112.395 61.0309 111.082C60.7903 110.609 60.6833 108.272 60.6833 102.337C60.6833 95.4044 60.6299 94.2752 60.2824 94.2752C59.9616 94.2752 55.3903 94.958 52.2091 95.4832L51.3269 95.6145V105.252C51.3269 116.203 51.3269 116.098 53.519 118.067C56.4328 120.72 65.6289 123.634 72.419 124.133C74.3972 124.265 74.9319 124.212 75.9744 123.739C78.1398 122.82 78.0863 123.267 78.0061 105.83L77.9259 90.73L73.1942 91.7805Z" fill="#004040"/>
<path d="M38.7624 96.7437L34.8862 97.0326L34.806 99.9213C34.6723 104.123 34.8862 105.41 35.8753 106.513C36.3297 107.012 37.8802 108.377 39.3505 109.506C41.5159 111.24 42.1575 111.607 42.9327 111.607C43.6812 111.607 43.8951 111.476 44.1089 110.924C44.2693 110.557 44.3763 107.195 44.3763 103.309V96.3761L43.5208 96.4286C43.0396 96.4549 40.901 96.5862 38.7624 96.7437Z" fill="#004040"/>
</g>
<defs>
<clipPath id="clip0_108_538">
<rect width="162" height="125" fill="white"/>
</clipPath>
</defs>
</svg>
