<svg width="320" height="105" viewBox="0 0 320 105" fill="none" xmlns="http://www.w3.org/2000/svg">
<path d="M165.077 13.4803C162.216 14.8659 161.477 18.8012 163.508 21.6833C164.477 23.0689 165.031 23.4015 166.554 23.4015C168.862 23.4015 169.969 22.681 170.893 20.5748C172.693 16.3624 168.862 11.5958 165.077 13.4803Z" fill="#004040"/>
<path d="M226.644 45.3026C223.782 46.6882 223.044 50.6234 225.074 53.5056C226.044 54.8912 226.597 55.2238 228.121 55.2238C230.428 55.2238 231.536 54.5032 232.459 52.397C234.259 48.1847 230.428 43.4181 226.644 45.3026Z" fill="#004040"/>
<path d="M88.6924 14.6441C88.5539 15.0321 88.5078 24.2328 88.5539 35.0408L88.6924 54.7169H92.6155H96.5385L96.7693 45.4608C97.0462 35.0408 97.1847 34.5974 100.277 34.0986C101.662 33.8769 102.354 34.0986 103.231 34.9299C104.339 36.0385 104.385 36.2602 104.615 45.4054L104.846 54.7169H108.769H112.692V43.6318C112.692 33.8214 112.6 32.3249 111.815 30.4405C109.554 24.9533 102.308 23.4568 98.2001 27.6138L96.8155 28.9994L96.677 21.6278L96.5385 14.2562L92.7078 14.0899C89.9385 13.979 88.8309 14.1453 88.6924 14.6441Z" fill="#004040"/>
<path d="M74.3846 18.912C73.877 19.1891 71.8462 21.517 69.8616 24.1774C66.3077 28.8332 66.2616 28.944 66.4 31.549C66.5385 34.0986 66.6308 34.2095 67.9693 34.3757L69.4462 34.542L69.6308 41.9136C69.8154 49.6732 70.1846 51.1143 72.4923 53.4422C75.077 55.9363 80.2923 56.1026 84.1231 53.8302C86.9385 52.1674 87.1693 50.8926 85.2308 47.4562C83.9846 45.35 83.5693 44.9621 82.7385 45.2946C82.2308 45.5163 81.0308 45.738 80.1539 45.7934L78.5385 45.8489L78.4 40.14L78.2616 34.4866H80.9846C82.4616 34.4866 83.8923 34.2095 84.2154 33.8215C84.7693 33.1564 84.9539 28.556 84.4923 27.0596C84.2616 26.3944 83.5231 26.1727 81.2616 26.1727H78.3077V22.9581C78.3077 21.1844 78.077 19.4662 77.7539 19.0783C77.1077 18.3023 75.7693 18.2469 74.3846 18.912Z" fill="#004040"/>
<path d="M297.308 18.912C295.692 19.688 289.369 28.5007 289.046 30.4406C288.585 32.8793 289.369 34.4866 291.031 34.4866H292.369L292.554 41.8028C292.692 50.0613 293.292 52.0566 296.246 54.1628C298.508 55.8255 303.954 55.7147 306.908 53.9965C309.815 52.2229 310.046 50.9481 308.062 47.5671C306.862 45.4609 306.354 45.0175 305.615 45.3501C305.108 45.5163 303.954 45.7381 303.077 45.7935L301.462 45.8489L301.323 40.1401L301.185 34.4866H303.954C307.138 34.4866 307.692 33.8215 307.692 30.108C307.692 26.3945 307.462 26.1728 304.185 26.1728H301.231V23.3461C301.231 18.8566 300.123 17.5818 297.308 18.912Z" fill="#004040"/>
<path d="M20.1078 25.7848C14.754 28.2235 11.3848 33.8769 11.3848 40.5834C11.3848 46.0706 14.4309 52.0566 18.4463 54.3844C21.1232 55.9364 25.7848 55.9918 27.8617 54.4953C29.154 53.553 29.3848 53.4976 29.8925 54.2182C30.3078 54.8278 31.3232 54.9941 33.954 54.8833L37.4617 54.717L37.6002 40.4172L37.6925 26.1728H33.8617C31.6925 26.1728 29.8001 26.4499 29.5232 26.7824C29.154 27.2258 28.6925 27.115 27.8617 26.4499C26.2463 25.2305 22.1848 24.8425 20.1078 25.7848ZM27.1232 35.3734C27.9078 35.8168 28.8309 37.0362 29.2002 38.0893C31.2309 43.909 25.2771 49.0636 21.5386 44.7404C20.8463 43.909 20.1078 42.6342 19.9232 41.8582C19.5078 39.6966 20.5232 36.7591 22.1848 35.5397C23.9386 34.2649 25.2771 34.2095 27.1232 35.3734Z" fill="#004040"/>
<path d="M124.046 26.0619C121.046 27.3921 119.569 28.6669 117.677 31.6598C115.831 34.542 115.092 37.7012 115.323 41.6919C115.554 45.4608 116.754 48.5093 119.016 51.1697C121.646 54.2181 123.677 55.2158 127.969 55.4375C132.308 55.7146 134.616 54.7724 137.569 51.6685C141.539 47.4562 142.923 39.9183 140.708 34.3757C139.462 31.3827 136.185 27.5583 133.877 26.3944C131.108 25.0088 126.862 24.8979 124.046 26.0619ZM131.662 36.371C132.908 37.8675 133.231 38.6989 133.231 40.4725C133.231 44.7403 129.816 47.5116 126.585 45.9042C123.216 44.2415 122.616 38.7543 125.431 35.9276C127.508 33.8214 129.677 33.9877 131.662 36.371Z" fill="#004040"/>
<path d="M204.862 26.0618C201.815 27.3921 199.139 30.4405 197.8 34.0986C196.969 36.4819 196.831 37.7012 197.015 41.4702C197.2 45.2391 197.431 46.3476 198.585 48.5647C201.262 53.6638 205.092 55.8254 210.954 55.4375C215.246 55.1603 217.739 53.8855 219.769 51.0034L221.015 49.2298L219.723 47.955C218.985 47.2899 217.739 46.2922 216.908 45.738C215.569 44.8512 215.246 44.8512 214.323 45.5717C211.831 47.4562 210.677 47.8996 209.062 47.5116C207.492 47.179 205.231 45.0729 205.231 43.9643C205.231 43.5764 208.139 43.2992 213.215 43.2438L221.154 43.0775L221.292 39.6411C221.431 35.7613 220.554 32.7129 218.431 29.6645C215.662 25.7293 209.477 24.1219 204.862 26.0618ZM211.877 33.9877C214.092 36.0385 213.492 36.7036 209.385 36.7036C205.508 36.7036 204.815 36.1493 206.523 34.3757C208.231 32.5466 210.169 32.3804 211.877 33.9877Z" fill="#004040"/>
<path d="M249.4 25.6185C248.662 25.8957 247.369 26.727 246.492 27.5584L244.923 28.9995V27.5584V26.1174L240.908 26.2836L236.846 26.4499V40.5835V54.717H240.769H244.692L244.923 45.6826L245.154 36.5928L246.446 35.2626C248.015 33.6553 249.954 33.5444 251.569 35.0963L252.769 36.2048V44.9621C252.769 51.0035 252.954 53.8856 253.323 54.329C253.646 54.717 255.308 54.9941 257.477 54.9941C260.938 54.9941 261.077 54.9387 261.354 53.6085C261.492 52.8325 261.538 48.0105 261.446 42.9113C261.262 33.0456 260.662 30.0526 258.4 27.6693C256.369 25.4523 252.354 24.5654 249.4 25.6185Z" fill="#004040"/>
<path d="M272.754 25.5631C264.815 28.0018 261.077 39.4195 265.277 48.2322C266.754 51.336 268.969 53.6085 271.554 54.7724C273.908 55.7701 279.4 55.7147 281.892 54.717C284.431 53.6639 287.385 50.8372 287.385 49.507C287.385 48.6202 283.323 45.0175 282.308 45.0175C282.123 45.0175 280.877 45.6826 279.631 46.4586C277.923 47.5117 276.954 47.7888 275.892 47.5117C274.185 47.0682 272.154 45.2392 272.154 44.1307C272.154 43.4656 273.492 43.3547 279.723 43.3547C288.585 43.3547 288.585 43.3547 288.169 38.4773C287.8 33.2118 285.492 28.944 281.8 26.727C279.769 25.4522 275.061 24.8425 272.754 25.5631ZM279.215 34.542C279.631 35.2072 280 35.9277 280 36.2048C280 36.4819 278.246 36.7036 276.077 36.7036C273.908 36.7036 272.154 36.4819 272.154 36.2048C272.154 35.9277 272.8 35.0409 273.631 34.2095C274.831 32.9901 275.431 32.7684 276.723 33.0456C277.646 33.2118 278.754 33.8769 279.215 34.542Z" fill="#004040"/>
<path d="M155.615 26.2835C155.108 26.6161 154.231 27.3921 153.677 28.0017L152.615 29.1103L151.646 27.6692C150.769 26.2835 150.4 26.1727 147.492 26.1727H144.308L144.4 40.4171L144.538 54.7169H148.461H152.385L152.615 46.2368C152.8 39.5303 152.985 37.6458 153.538 37.2578C153.908 36.9253 155.431 36.8699 156.861 37.0361L159.492 37.3687L159.908 35.2625C160.831 30.9393 160.923 27.3366 160.185 26.4498C159.354 25.5076 156.954 25.3967 155.615 26.2835Z" fill="#004040"/>
<path d="M40.9233 36.1493C40.9233 43.9089 41.0618 46.6248 41.6156 48.2321C43.2772 52.9988 47.0618 55.5483 52.4156 55.5483C56.6156 55.5483 58.831 54.7724 61.0464 52.6108C64.0464 49.6178 64.4618 47.7887 64.4618 36.2602V26.1173L60.4464 26.2836L56.3849 26.4499L56.1541 35.7614C55.9233 44.1861 55.831 45.1837 55.0464 45.9043C53.8464 46.9574 51.308 46.9019 50.431 45.7934C49.3695 44.5741 49.231 43.4101 49.0926 34.4866L49.0003 26.4499L44.9849 26.2836L40.9233 26.1173V36.1493Z" fill="#004040"/>
<path d="M162.862 40.4171L163 54.7169H166.923H170.846V40.5834V26.4498L166.785 26.2835L162.77 26.1173L162.862 40.4171Z" fill="#004040"/>
<path d="M174.031 26.8933C173.892 27.3367 173.846 29.1657 173.939 30.9394L174.077 34.2095L178.831 34.3757C181.416 34.4312 183.539 34.7083 183.539 34.93C183.539 35.1517 182.292 36.8145 180.723 38.6435C179.154 40.4726 176.892 43.4101 175.646 45.1838C173.616 48.0659 173.385 48.6756 173.385 51.0589C173.385 52.6662 173.662 53.9964 174.031 54.3844C174.446 54.8278 177.769 54.9941 184.969 54.8832L195.308 54.717L195.446 50.7263C195.585 46.0151 195.862 46.1814 189.4 45.9597L185.339 45.8489L190.231 39.4749L195.077 33.101L194.985 29.7754L194.846 26.4499L184.554 26.2836C176.154 26.1727 174.262 26.2836 174.031 26.8933Z" fill="#004040"/>
<path d="M146.892 81.4875C145.231 86.9193 143.846 91.575 143.846 91.7413C143.846 91.963 144.308 92.1293 144.908 92.1293C145.785 92.1293 146.108 91.6304 146.662 89.4688L147.354 86.8638L151.046 86.6975L154.738 86.5313L155.431 89.1917C155.985 91.4087 156.308 91.9076 157.323 92.0184L158.523 92.1847L155.431 82.0418C152.569 72.7303 152.246 71.8989 151.138 71.7326C150.031 71.5663 149.846 71.9543 146.892 81.4875ZM152.569 79.5476C154 84.2588 153.954 84.3697 151 84.3697C149.615 84.3697 148.462 84.148 148.462 83.8708C148.462 82.5406 150.954 75.5016 151.231 75.8895C151.415 76.1112 152.015 77.774 152.569 79.5476Z" fill="#004040"/>
<path d="M164.154 72.0098C164.154 72.287 165.446 76.8319 167.062 82.1527C169.923 91.7414 169.969 91.8522 171.4 92.0185C172.692 92.1848 172.877 92.0185 173.523 89.8015C173.892 88.4713 175.277 83.8709 176.569 79.4923L178.923 71.5664L177.677 71.7327C176.569 71.899 176.292 72.5087 174.123 80.0465C172.831 84.536 171.631 88.3604 171.446 88.5267C171.308 88.693 170.108 84.9794 168.769 80.2128C166.554 72.3978 166.231 71.6218 165.262 71.6218C164.662 71.6218 164.154 71.7881 164.154 72.0098Z" fill="#004040"/>
<path d="M181.093 72.0098C180.908 72.1761 180.77 72.9521 180.77 73.6726C180.77 74.7257 181 74.9474 182.154 74.9474C183.4 74.9474 183.539 74.7811 183.539 73.2846C183.539 71.899 183.354 71.6218 182.477 71.6218C181.877 71.6218 181.231 71.7881 181.093 72.0098Z" fill="#004040"/>
<path d="M220.369 72.4532C218.846 73.5063 218.154 74.8919 218.154 77.0535C218.154 79.7694 219.677 81.4321 223.277 82.7069C227.939 84.3697 229.231 86.1988 227.477 88.8038C225.677 91.5196 221.154 90.6882 219.908 87.3627C219.631 86.6422 219.031 86.0325 218.523 86.0325C216.631 86.0325 218.246 90.4111 220.646 91.7967C224.892 94.2355 230.154 91.4642 230.154 86.8084C230.154 83.9817 228.723 82.4298 224.615 80.767C220.046 78.938 218.985 77.2752 220.923 74.9473C221.939 73.728 224.523 73.4508 226.046 74.4485C226.554 74.7256 227.154 75.6124 227.385 76.3884C227.662 77.1644 228.169 77.7186 228.769 77.7186C230.108 77.7186 229.923 75.8342 228.354 73.728C227.246 72.1761 226.739 71.9544 224.339 71.7881C222.492 71.6772 221.2 71.8989 220.369 72.4532Z" fill="#004040"/>
<path d="M247.692 81.8755C247.692 91.7413 247.739 92.1293 248.615 92.1293C249.492 92.1293 249.539 91.7413 249.539 81.8755C249.539 72.0098 249.492 71.6218 248.615 71.6218C247.739 71.6218 247.692 72.0098 247.692 81.8755Z" fill="#004040"/>
<path d="M277.554 72.0098C277.369 72.1761 277.231 72.9521 277.231 73.6726C277.231 74.7257 277.462 74.9474 278.616 74.9474C279.862 74.9474 280 74.7811 280 73.2846C280 71.899 279.816 71.6218 278.939 71.6218C278.339 71.6218 277.692 71.7881 277.554 72.0098Z" fill="#004040"/>
<path d="M268.462 75.5017C268.462 77.497 268.369 77.7187 267.308 77.7187C266.477 77.7187 266.154 77.9958 266.154 78.8272C266.154 79.6586 266.477 79.9357 267.308 79.9357C268.462 79.9357 268.462 79.9357 268.462 85.0903C268.462 89.8015 268.554 90.4112 269.523 91.4642C271.138 93.2933 274.923 93.0162 274.923 91.0763C274.923 90.3003 274.6 90.1895 273.308 90.3557C270.723 90.7437 270.308 89.9123 270.308 84.5915V79.9357H272.385C274.138 79.9357 274.462 79.7694 274.462 78.8272C274.462 77.885 274.138 77.7187 272.385 77.7187H270.308V75.5017C270.308 73.6726 270.169 73.2846 269.385 73.2846C268.6 73.2846 268.462 73.6726 268.462 75.5017Z" fill="#004040"/>
<path d="M188.154 78.162C184.785 80.1573 185.385 84.3143 189.169 85.4782C192.769 86.5313 193.462 86.8638 193.6 87.8615C193.877 89.4688 192.815 90.4665 190.923 90.4665C189.585 90.4665 188.938 90.134 188.246 89.0809C187.185 87.4735 185.846 87.2518 185.846 88.6929C185.846 91.9076 191.154 93.792 194.062 91.6304C195.308 90.6328 195.538 90.1894 195.538 88.2495C195.538 85.6445 194.569 84.6468 191.477 84.0371C190.369 83.8154 189.031 83.2057 188.477 82.7069C187.508 81.7092 187.462 81.7092 188.338 80.5453C189.446 79.0488 191.569 79.0488 192.769 80.4899C193.277 81.0996 194.108 81.5984 194.615 81.5984C195.492 81.5984 195.538 81.4875 194.892 79.9911C194.2 78.4946 192.169 77.1643 190.508 77.1643C190.092 77.1643 189.031 77.6077 188.154 78.162Z" fill="#004040"/>
<path d="M201.216 77.9957C199.831 78.7163 198.769 80.2682 198.769 81.543C198.769 82.6515 200.246 82.1527 201.354 80.767C201.954 79.9911 202.923 79.3814 203.616 79.3814C204.954 79.3814 206.616 81.155 206.616 82.5406C206.616 83.4274 206.154 83.5383 203.339 83.5383C200.477 83.5383 199.969 83.7046 199.185 84.8685C197.616 87.1964 198.077 90.5774 200.2 91.8522C201.862 92.9052 203.523 92.9052 205.231 91.8522C206.016 91.3533 206.616 91.2425 206.616 91.575C206.616 91.8522 207.077 92.1293 207.677 92.1293C208.693 92.1293 208.693 92.0739 208.462 86.1987C208.323 82.8732 208.046 79.8802 207.816 79.4368C207.354 78.55 204.677 77.1643 203.523 77.1643C203.062 77.2198 202.046 77.5523 201.216 77.9957ZM206.246 87.141C206.108 88.97 204.539 90.4665 202.739 90.4665C201.031 90.4665 200.154 89.6351 200.154 87.9724C200.154 86.0325 201.077 85.4228 203.846 85.589C206.246 85.7553 206.385 85.8108 206.246 87.141Z" fill="#004040"/>
<path d="M235.877 78.2174C231.4 80.6561 231.308 89.1363 235.739 91.9075C237.539 92.9606 240.631 92.7389 242.431 91.2979C245.108 89.2471 245.662 82.984 243.492 80.1019C242.292 78.6054 239.939 77.1643 238.6 77.1643C238.139 77.1643 236.939 77.6631 235.877 78.2174ZM240.769 80.2127C243.4 81.8201 243.585 87.5289 241.092 89.6351C237.4 92.7389 232.923 87.4735 234.954 82.3743C236.062 79.5476 238.323 78.7162 240.769 80.2127Z" fill="#004040"/>
<path d="M285.677 78.3286C279.908 81.765 282.031 92.6838 288.446 92.6838C293.385 92.6838 296.2 86.8087 293.984 81.2107C293.477 79.8805 292.6 78.8828 291.354 78.2177C288.908 76.8875 288.031 76.8875 285.677 78.3286ZM290.569 80.1576C292.785 81.5433 293.477 84.758 292.231 87.6955C290.431 91.8525 285.861 91.3536 284.615 86.8641C283.923 84.3146 284.708 81.3216 286.369 80.2131C287.938 79.2154 288.954 79.2154 290.569 80.1576Z" fill="#004040"/>
<path d="M301 78.0511C300.123 78.6054 299.569 78.6608 299.477 78.3283C299.385 77.9957 298.923 77.7186 298.415 77.7186C297.585 77.7186 297.539 78.2174 297.539 84.9239C297.539 91.7413 297.585 92.1293 298.462 92.1293C299.339 92.1293 299.385 91.7413 299.385 87.141C299.385 82.5406 299.477 81.9864 300.539 80.767C301.785 79.2151 303.4 78.9934 304.692 80.1573C305.431 80.8224 305.615 81.8201 305.754 86.5313C305.939 91.575 306.031 92.1293 306.815 92.1293C307.6 92.1293 307.692 91.6859 307.692 87.1964C307.692 81.3213 307.139 79.0488 305.339 77.9957C303.677 76.9426 302.708 76.9426 301 78.0511Z" fill="#004040"/>
<path d="M181.231 84.9239C181.231 91.7413 181.277 92.1293 182.154 92.1293C183.031 92.1293 183.077 91.7413 183.077 84.9239C183.077 78.1066 183.031 77.7186 182.154 77.7186C181.277 77.7186 181.231 78.1066 181.231 84.9239Z" fill="#004040"/>
<path d="M252.862 83.8709C253 89.8015 253.046 90.0786 254.292 91.3534C255.769 92.9053 257.754 93.0716 259.692 91.8522C260.477 91.3534 261.077 91.2425 261.077 91.5751C261.077 91.8522 261.492 92.1293 262 92.1293C262.877 92.1293 262.923 91.7413 262.923 84.924C262.923 78.1066 262.877 77.7186 262 77.7186C261.123 77.7186 261.077 78.1066 261.077 82.8732C261.077 87.6398 260.985 88.1387 259.969 89.3026C259.185 90.1894 258.446 90.522 257.338 90.3557C255.215 90.134 254.615 88.4712 254.615 82.5407C254.615 77.9958 254.569 77.7186 253.646 77.7186C252.723 77.7186 252.677 77.9404 252.862 83.8709Z" fill="#004040"/>
<path d="M277.692 84.9239C277.692 91.7413 277.739 92.1293 278.615 92.1293C279.492 92.1293 279.539 91.7413 279.539 84.9239C279.539 78.1066 279.492 77.7186 278.615 77.7186C277.739 77.7186 277.692 78.1066 277.692 84.9239Z" fill="#004040"/>
</svg>
