<svg width="162" height="125" viewBox="0 0 162 125" fill="none" xmlns="http://www.w3.org/2000/svg">
<path d="M57.8866 24.8307C51.0143 25.3282 45.6646 26.4396 39.9856 28.5776C25.8981 33.8591 15.7611 44.2952 13.1823 56.1707C12.6473 58.6051 12.5513 59.6106 12.5513 62.5001C12.5513 65.3896 12.6473 66.3951 13.1823 68.8295C16.1726 82.5784 29.0942 94.0941 46.3641 98.4125C49.3133 99.1534 52.0568 99.6297 55.3489 99.9684C57.3653 100.18 62.0017 100.286 64.3748 100.18L66.1169 100.106V94.3904C66.1169 89.0031 66.1032 88.6855 65.8837 88.7385C65.3076 88.8761 61.6588 89.0242 60.2185 88.9607C55.006 88.749 50.6576 87.8917 46.3504 86.2512C36.3232 82.4091 29.5469 75.4023 27.5442 66.8185C27.2698 65.6119 27.2287 65.125 27.2287 62.5001C27.2287 59.1872 27.3933 58.1288 28.326 55.5039C31.9611 45.2795 43.3052 37.6694 57.0635 36.2406C58.9565 36.0395 63.6066 35.9971 65.1978 36.1665L66.1169 36.2617V30.5886V24.9048L64.8549 24.8307C63.6341 24.7672 58.8331 24.7672 57.8866 24.8307Z" fill="#004040"/>
<path d="M141.15 24.8307C134.278 25.3282 128.928 26.4395 123.249 28.5775C109.148 33.8697 99.0382 44.2846 96.432 56.1813C95.9244 58.5627 95.8147 59.6105 95.8147 62.5C95.8147 65.3895 95.9244 66.4374 96.432 68.8188C99.0382 80.7155 109.148 91.1304 123.249 96.4226C130.848 99.2803 139.038 100.54 147.638 100.18L149.517 100.106V94.3904V88.6749L149.216 88.7384C149.037 88.7702 147.954 88.8548 146.815 88.9183C143.468 89.1089 139.216 88.7913 135.979 88.1139C131.274 87.1296 126.541 85.2456 122.906 82.9277C117.433 79.4349 113.345 74.5555 111.548 69.3481L111.123 68.1626H125.458H139.778V62.5V56.8375H125.458H111.123L111.548 55.6415C112.728 52.2333 115.087 48.6664 118.05 45.8404C122.495 41.5856 128.955 38.3574 135.979 36.8862C139.216 36.2088 143.468 35.8912 146.815 36.0818C147.954 36.1453 149.037 36.2299 149.216 36.2617L149.517 36.3252V30.6203V24.9048L148.187 24.8413C146.87 24.7672 142.083 24.7672 141.15 24.8307Z" fill="#004040"/>
</svg>
