<svg width="162" height="125" viewBox="0 0 162 125" fill="none" xmlns="http://www.w3.org/2000/svg">
<g clip-path="url(#clip0_108_525)">
<path fill-rule="evenodd" clip-rule="evenodd" d="M19.8958 72.0328H39.9008V66.2269H12.6705L12.3831 66.2256V86.8961H19.6848V72.119L19.8958 72.0328Z" fill="#004040"/>
<path fill-rule="evenodd" clip-rule="evenodd" d="M12.3847 45.9357L67.0512 45.9305L67.1672 45.8909C78.967 45.9759 88.4967 53.3583 88.4967 62.452C88.4967 71.5587 78.9367 78.9489 67.1075 79.0112L66.9193 79.0047L53.5453 78.9943V58.087H61.095V73.3077L61.7253 73.2947H66.9335L67.2235 73.2921C74.8639 73.1728 81.0092 68.374 81.0092 62.4715C81.0092 56.5371 74.8018 51.7182 67.1067 51.6469H19.868L19.6856 51.6501V57.9697L19.6915 58.0831L39.8478 58.0883L39.868 63.8942L12.4663 63.8904L12.3831 63.8865L12.3847 45.9357ZM121.874 38.3282L154.901 81.2854L159.618 75.2564L130.349 38.3282H121.874ZM87.9824 86.8987L121.847 43.3631L149.781 79.0267H111.281V73.464H136.274L121.847 54.8932L98.2038 86.8987H87.9824Z" fill="#004040"/>
<path fill-rule="evenodd" clip-rule="evenodd" d="M154.901 81.2854L111.281 81.2763V86.8987L150.613 86.887L150.672 86.7541L154.901 81.2854ZM42.8566 81.1025L42.8877 58.0857H50.4374V81.1025L50.4357 81.1479H66.9353L67.1084 81.1518C80.4756 81.0798 91.2828 72.7253 91.2828 62.4293C91.2828 52.1514 80.5059 43.8053 67.1672 43.7087L66.9353 43.7133L9.68527 43.712L9.68359 86.8954H2.38184L2.38436 38.1038L66.9353 38.1006H67.2269C82.5784 38.2076 95.3228 46.4363 98.0778 57.6519L113.401 38.3276H121.874L95.5968 72.2908L93.0478 75.6143C87.3958 82.0052 78.0131 86.7651 67.2269 86.8403L66.9353 86.8416H42.8566V81.1025Z" fill="#004040"/>
</g>
<defs>
<clipPath id="clip0_108_525">
<rect width="162" height="125" fill="white"/>
</clipPath>
</defs>
</svg>
