<svg width="162" height="125" viewBox="0 0 162 125" fill="none" xmlns="http://www.w3.org/2000/svg">
<g clip-path="url(#clip0_108_531)">
<path d="M73.9116 0.137724C65.3169 0.729683 56.5893 2.94609 48.8659 6.48409C45.5284 8.02594 44.347 8.64544 41.231 10.559C35.4717 14.097 29.668 19.1218 25.3707 24.298C24.3665 25.5094 22.1514 28.4279 22.1514 28.5518C22.1514 28.5931 22.7273 28.6344 23.4509 28.6344H24.7357L25.7842 27.2853C27.5711 25.0276 29.9486 22.467 32.341 20.2231C34.7333 17.9929 37.6721 15.6113 38.1742 15.4736C38.3661 15.4323 39.0454 15.7352 40.2268 16.3822C41.1867 16.9329 42.6635 17.7176 43.5052 18.1306C44.539 18.6399 45.0411 18.9566 45.0411 19.1218C45.0411 19.2457 44.598 19.8514 44.0664 20.4433C42.7078 21.9577 41.1277 23.9263 40.0644 25.3993C39.1636 26.6658 37.9526 28.5518 37.9526 28.6895C37.9526 28.7308 38.499 28.7721 39.1784 28.7721H40.3893L41.7627 26.9411C43.8892 24.1052 47.2414 20.2644 47.6402 20.2506C47.7288 20.2368 49.0283 20.6636 50.5198 21.1867C52.0114 21.7099 54.4628 22.5221 55.9691 23.0039C57.4753 23.472 58.7454 23.8987 58.8192 23.9538C58.9669 24.0639 58.5091 25.2341 57.6969 26.8448C56.6484 28.9235 56.6188 28.7721 58.0808 28.7721H59.3213L60.3255 26.7759C60.8867 25.6746 61.4183 24.711 61.5069 24.6421C61.625 24.5458 62.1567 24.5871 63.0722 24.766C66.4097 25.3993 71.475 25.9775 74.8715 26.1151C77.3672 26.1977 77.382 26.2115 77.382 27.4505C77.382 27.9186 77.4411 28.3591 77.5001 28.4417C77.6035 28.5931 78.6225 28.7033 79.4938 28.662C79.8777 28.6344 79.8925 28.6207 79.8925 27.7671C79.8925 26.2941 79.8629 26.3354 81.4874 26.239C86.0062 25.95 89.9492 25.4957 93.0799 24.9037C94.5419 24.6284 95.3393 24.532 95.4427 24.6284C95.5461 24.6972 96.0777 25.6333 96.6536 26.6933L97.6726 28.6344H98.9131C100.36 28.6344 100.316 28.8134 99.2823 26.6383C98.6768 25.3993 98.1156 23.8299 98.2338 23.7611C98.2633 23.7473 98.9131 23.5546 99.681 23.3343C101.232 22.9075 104.85 21.7099 107.552 20.7324C108.527 20.3883 109.398 20.0992 109.501 20.0992C109.959 20.0992 113.031 23.5133 115.453 26.7346C116.708 28.3866 116.944 28.6344 117.373 28.717C117.875 28.8134 119.292 28.7033 119.44 28.5656C119.514 28.4968 116.309 23.9263 115.911 23.5546C115.792 23.4307 115.571 23.1416 115.408 22.9213C115.113 22.4533 114.596 21.8613 113.444 20.6361C112.632 19.7688 112.219 19.0667 112.337 18.7638C112.381 18.6675 113.046 18.2682 113.828 17.8828C114.626 17.4835 115.999 16.7401 116.915 16.217C117.816 15.7077 118.657 15.2809 118.79 15.2809C119.159 15.2809 122.231 17.7038 124.697 19.9615C127.222 22.2605 129.615 24.8349 131.328 27.0788C132.48 28.5931 132.554 28.6344 134.001 28.6344C135.226 28.6344 135.271 28.5243 134.459 27.4367C131.077 23.0039 127.193 18.9428 123.043 15.5425C112.411 6.82825 99.1789 1.55568 84.7658 0.275389C82.462 0.0688896 76.0825 -0.0137081 73.9116 0.137724ZM85.7995 2.5331C87.6898 2.7396 90.215 3.12506 91.8394 3.45546C92.4892 3.57936 92.5926 3.64819 92.5926 3.92352C92.5926 4.51548 89.6391 6.01603 86.8037 6.86955C79.4347 9.05843 71.032 8.24621 65.2431 4.76328C64.6081 4.39158 64.3866 4.17132 64.3866 3.93728C64.3866 3.64819 64.5047 3.59312 65.8338 3.33156C67.532 2.98739 71.0763 2.51933 73.2471 2.35413C75.5951 2.1614 83.4367 2.27154 85.7995 2.5331ZM98.6473 5.1625C103.58 6.51162 108.985 8.92076 114.124 12.0595C115.645 12.9819 116.221 13.4224 116.221 13.6151C116.221 13.8216 115.541 14.2484 113.385 15.4048C111.82 16.2446 110.387 16.9329 110.195 16.9329C109.944 16.9329 109.339 16.4924 108.202 15.4736C104.791 12.445 100.729 9.49896 96.9933 7.33761C95.3689 6.40149 94.9554 6.09863 94.9554 5.8646C94.9554 5.4103 96.1368 4.50171 96.5798 4.61184C96.698 4.63938 97.6283 4.88717 98.6473 5.1625ZM61.5955 5.19004C62.5997 5.89213 62.5554 6.15369 61.4035 6.81449C57.1209 9.25116 52.8236 12.3073 48.8068 15.7627C47.4039 16.9604 47.1233 17.1394 46.7836 17.0705C46.2372 16.9742 40.9357 14.1658 40.8323 13.9318C40.6846 13.5738 41.0538 13.2297 42.501 12.3486C46.8722 9.67792 50.8299 7.80568 55.8804 6.05733C57.18 5.58927 58.3909 5.1625 58.5534 5.07991C58.8783 4.94224 59.9858 4.72198 60.5322 4.69444C60.7242 4.68068 61.1968 4.90094 61.5955 5.19004ZM93.5229 8.05347C96.1368 9.29246 100.848 12.3349 103.742 14.6614C105.721 16.2583 107.36 17.7864 107.36 18.048C107.36 18.6537 97.1853 21.9577 96.7127 21.5171C96.6389 21.4483 96.0482 20.5397 95.3836 19.4797C93.7887 16.9329 91.2783 13.3123 89.5357 11.0408C88.7678 10.0359 88.1623 9.1135 88.1918 8.9896C88.2214 8.85193 88.9302 8.494 90.0083 8.05347C91.9871 7.25502 91.8247 7.25502 93.5229 8.05347ZM67.0447 8.12231C68.6396 8.75557 68.743 8.8244 68.7282 9.18233C68.7134 9.43013 68.3443 10.0221 67.7093 10.8068C66.203 12.6653 63.8697 16.0105 62.201 18.7225C60.4584 21.5722 60.2664 21.7925 59.7052 21.6686C58.7601 21.4483 55.1716 20.3607 53.3995 19.755C50.4903 18.7776 49.9144 18.516 49.9144 18.1856C49.9144 17.5111 55.8214 12.8855 59.8825 10.3662C62.3929 8.81063 64.8739 7.44775 65.1988 7.44775C65.2874 7.44775 66.1144 7.75061 67.0447 8.12231ZM75.0487 10.1322L77.2048 10.38L77.2934 10.7792C77.3377 10.9995 77.382 14.0281 77.382 17.4973V23.8161L76.6141 23.8437C73.5572 23.94 67.4434 23.3481 64.1207 22.646C63.1165 22.4257 63.0575 22.3982 63.0575 22.0403C63.0575 21.1179 67.665 14.3998 70.8547 10.6829C71.6522 9.74676 71.667 9.74676 72.2724 9.81559C72.5973 9.85689 73.8526 10.0083 75.0487 10.1322ZM86.5822 11.2473C88.118 13.092 89.58 15.0331 90.9386 17.0292C92.1052 18.7225 94.0693 21.9439 94.0693 22.1504C94.0693 22.3982 89.7424 23.1966 86.6117 23.527C84.4704 23.7611 80.1731 23.9951 80.0697 23.885C80.0106 23.8299 79.9516 20.8013 79.922 17.1394L79.8629 10.4764L80.5127 10.3938C80.8671 10.3387 81.9452 10.1873 82.9198 10.0496C83.8945 9.91195 84.8396 9.80182 85.0168 9.78806C85.2531 9.77429 85.6371 10.1322 86.5822 11.2473Z" fill="#004040"/>
<path d="M127.739 34.1548C123.146 34.375 118.569 35.3524 114.389 37.0182C110.86 38.4361 109.176 39.4136 107.094 41.2445C101.364 46.2555 98.8982 52.4367 98.6914 62.2935C98.6323 64.8128 98.6766 66.0518 98.8539 67.511C99.8285 75.3167 103.136 81.25 108.689 85.0634C114.124 88.8216 121.138 90.9554 128.847 91.217C137.072 91.5061 146.021 89.3447 151.367 85.8067C153.198 84.5815 155.665 82.2825 156.713 80.7957C158.5 78.3178 160.198 74.3943 161.025 70.8976C162.62 64.1245 162.177 56.8282 159.785 50.3167C158.589 47.0678 157.2 44.8651 155 42.7038C150.26 38.0507 141.532 34.6228 133.321 34.2098C130.456 34.0584 129.821 34.0584 127.739 34.1548ZM133.602 48.1966C134.281 48.3343 135.241 48.6509 135.743 48.8849C138.254 50.0689 139.11 51.418 139.849 55.3414C140.439 58.4389 140.425 66.6438 139.819 70.6911C139.509 72.8387 138.579 74.6559 137.353 75.5645C135.477 76.9411 131.933 77.6983 128.906 77.3679C125.997 77.0512 123.855 76.1289 122.689 74.6834C121.684 73.4582 120.946 70.8288 120.636 67.3596C120.326 64.0006 120.636 56.016 121.168 53.6482C121.684 51.3354 123.146 49.5733 125.17 48.8436C128.049 47.7836 130.752 47.5771 133.602 48.1966Z" fill="#004040"/>
<path d="M59.2622 34.3475C53.5915 35.022 48.7182 37.0319 45.4841 40.0606C43.0327 42.332 41.5707 45.2781 41.0391 48.9813C40.788 50.7021 40.9504 54.1575 41.3344 55.5066C42.693 60.3386 46.9313 64.5512 52.9269 67.0016C53.7982 67.3733 58.5386 68.7775 64.8886 70.5672C70.6628 72.1916 75.9052 73.7059 76.5402 73.9537C78.4748 74.6696 79.1393 75.4956 78.6077 76.5005C78.1942 77.299 76.7913 77.8221 74.0593 78.1938C72.4792 78.4003 68.6101 78.359 67.1038 78.125C64.1946 77.6569 61.1229 76.6107 58.8044 75.2891C57.1504 74.3392 54.6547 72.0402 53.8425 70.7186L53.2666 69.7962H47.3153H41.3492V79.9146V90.033H47.9207H54.4923V88.1745C54.4923 86.8805 54.5366 86.3161 54.6547 86.3161C54.7433 86.3161 55.5999 86.7153 56.545 87.1971C64.2093 91.1206 75.1078 92.3183 82.9198 90.1156C87.8079 88.739 91.0124 86.8392 93.4048 83.8656C97.4216 78.8821 98.1452 72.1503 95.2507 66.7676C94.0693 64.5787 91.8394 62.1421 89.4175 60.3799C86.1391 57.9983 85.578 57.8056 72.4792 54.2538C66.3211 52.5743 60.9605 51.06 60.5618 50.8673C60.1483 50.6883 59.6462 50.3166 59.4394 50.0551C58.4795 48.8711 58.9816 47.6872 60.7685 46.9163C61.4626 46.6134 61.6693 46.5997 64.6081 46.6134C67.2219 46.6272 67.9603 46.6685 69.2598 46.9301C72.2724 47.522 74.1479 48.114 76.3926 49.1878C78.7701 50.3029 80.8376 51.886 82.2257 53.6481L82.9051 54.5154H89.004H95.103V45.0853V35.6553H88.753H82.403V37.1696C82.403 38.6288 82.3882 38.6839 82.0928 38.6839C81.9156 38.6839 81 38.2847 80.0401 37.7891C76.555 35.9719 73.9707 35.1734 69.5995 34.5402C66.9118 34.1685 61.6545 34.0584 59.2622 34.3475Z" fill="#004040"/>
<path d="M0 41.4373V48.1829H4.35643H8.71285V62.4312V76.6796H4.35643H0V83.3563V90.0331H18.9025H37.8049V83.3563V76.6796H33.4485H29.0921L29.1216 62.4587L29.1659 48.2517L33.5814 48.2104L37.9969 48.1829L37.9083 47.2467C37.8492 46.7374 37.8049 43.7087 37.8049 40.5011V34.6917H18.9025H0V41.4373Z" fill="#004040"/>
<path d="M22.3728 96.0766C22.2251 96.3244 25.1491 100.096 27.5119 102.684C28.2503 103.497 29.9781 105.19 31.3662 106.484C38.1445 112.762 45.4397 117.249 53.9754 120.388C62.7916 123.637 71.2091 125.041 80.5569 124.821C85.9176 124.697 90.3183 124.16 95.3245 123.004C111.524 119.287 125.288 110.256 134.813 97.0677C135.581 96.0215 135.522 95.9527 133.986 95.9527H132.937L132.229 96.8888C130.117 99.6558 127.636 102.382 124.86 104.983C122.172 107.503 119.912 109.306 119.425 109.306C118.953 109.306 112.529 105.851 112.529 105.589C112.529 105.479 113.031 104.818 113.651 104.144C115.364 102.258 117.136 100.014 118.51 97.9901C119.204 96.9851 119.765 96.1179 119.765 96.0628C119.765 95.994 119.189 95.9527 118.48 95.9527H117.18L116.486 96.9576C114.995 99.0777 110.55 104.35 110.092 104.529C110.018 104.557 108.748 104.158 107.286 103.634C105.824 103.125 103.329 102.285 101.748 101.776C100.168 101.28 98.8096 100.826 98.7506 100.771C98.6915 100.716 99.0312 99.821 99.5037 98.761C99.991 97.701 100.434 96.641 100.478 96.3932L100.597 95.9527H99.4299H98.278L97.1261 98.0865C96.5059 99.2566 95.9447 100.22 95.8857 100.22C95.8118 100.22 94.911 100.055 93.8477 99.8623C90.3331 99.2291 85.5336 98.6509 82.4767 98.4995C80.0253 98.3756 80.1878 98.4582 80.1878 97.3431C80.1878 95.9389 80.2025 95.9527 78.8439 95.9527H77.6773L77.7216 97.0402C77.7363 97.6459 77.692 98.1966 77.6034 98.2792C77.5296 98.348 76.4959 98.4719 75.3145 98.5545C72.1099 98.7748 68.1965 99.2153 65.0067 99.7109C63.0869 100.014 62.1123 100.11 62.0384 100.014C61.9646 99.9449 61.433 98.9951 60.857 97.9075L59.8085 95.9527H58.6271C57.9774 95.9527 57.4457 96.0077 57.4457 96.0766C57.4457 96.3244 57.8888 97.3293 58.701 98.9813C59.1588 99.9036 59.4837 100.716 59.4098 100.785C59.3507 100.84 57.8002 101.363 55.969 101.927C54.1378 102.492 51.583 103.359 50.2835 103.855L47.9207 104.749L46.9903 103.855C45.676 102.588 43.1803 99.6283 41.7478 97.6459L40.5369 95.9664L39.2521 95.9527C38.5285 95.9527 37.9526 95.9802 37.9526 96.0215C37.9526 96.1867 39.7099 98.7335 40.6993 100.014C41.29 100.771 42.5305 102.285 43.4756 103.373C44.6866 104.777 45.1887 105.452 45.1887 105.713C45.1887 106.03 44.8638 106.236 42.0727 107.751C40.3597 108.687 38.8386 109.444 38.6614 109.444C37.864 109.444 31.6616 104.006 28.8558 100.84C28.0435 99.9312 26.8621 98.4995 26.2124 97.6735C25.5626 96.8337 24.9719 96.1179 24.8833 96.0628C24.6618 95.9114 22.4762 95.9251 22.3728 96.0766ZM77.7216 101.9C77.7806 102.533 77.825 105.603 77.825 108.714C77.825 113.175 77.7806 114.4 77.6477 114.4C77.5444 114.414 76.5254 114.537 75.3883 114.689C74.2512 114.854 73.055 115.006 72.7301 115.033L72.1394 115.102L70.9137 113.615C68.1817 110.311 63.4118 103.194 63.53 102.616C63.589 102.327 64.2536 102.148 67.1923 101.68C70.0425 101.211 73.6753 100.881 76.6583 100.798L77.633 100.771L77.7216 101.9ZM86.5378 101.129C88.7234 101.335 92.0461 101.817 93.7739 102.189C94.3351 102.313 94.6009 102.437 94.6304 102.602C94.7486 103.166 90.5841 109.43 87.5715 113.188C85.8585 115.35 86.0652 115.253 83.9387 114.895C83.2889 114.785 82.2995 114.648 81.7236 114.606C81.1476 114.551 80.6012 114.469 80.4979 114.4C80.3502 114.317 80.2911 112.913 80.2321 108.191C80.173 104.832 80.1878 101.776 80.2468 101.404L80.365 100.743L82.2995 100.826C83.3775 100.881 85.2826 101.019 86.5378 101.129ZM62.0827 105.176C63.7219 107.847 65.686 110.71 67.7535 113.464C68.6691 114.689 69.3927 115.749 69.3631 115.818C69.3336 115.9 68.418 116.313 67.3252 116.754L65.3464 117.552L64.2388 116.988C60.9752 115.322 56.7369 112.514 53.237 109.664C50.4607 107.42 50.1801 107.145 50.2392 106.746C50.2835 106.401 50.4607 106.305 51.967 105.699C54.8319 104.557 60.222 102.919 60.6503 103.07C60.7389 103.111 61.3887 104.061 62.0827 105.176ZM99.5628 103.579C102.767 104.35 107.803 106.126 107.803 106.498C107.803 106.938 104.466 109.843 101.556 111.963C98.5734 114.138 93.0208 117.373 92.371 117.318C92.2085 117.305 91.352 117.015 90.4512 116.685C88.9302 116.093 88.8268 116.038 88.8711 115.694C88.9006 115.501 89.3289 114.799 89.8457 114.152C91.9132 111.481 94.4975 107.709 96.7126 104.102C97.0523 103.566 97.392 103.111 97.4658 103.111C97.5396 103.111 98.4848 103.318 99.5628 103.579ZM113.799 109.1C115.335 109.898 116.678 110.642 116.797 110.752C116.9 110.848 116.959 111.027 116.915 111.151C116.693 111.688 112.13 114.372 108.541 116.079C106.016 117.291 102.782 118.544 100.139 119.356C97.0671 120.306 96.9342 120.319 96.1367 119.741C95.0291 118.957 95.1178 118.778 97.1409 117.566C100.862 115.336 103.329 113.574 106.843 110.6C109.221 108.59 110.432 107.654 110.668 107.654C110.845 107.654 112.248 108.301 113.799 109.1ZM49.6042 109.485C53.0598 112.624 57.7263 115.955 61.9351 118.282C62.8802 118.805 62.8654 119.204 61.9203 119.769C61.5363 120.003 61.1081 120.182 60.9752 120.182C60.5026 120.182 56.8107 119.067 54.7137 118.296C50.7265 116.836 47.138 115.088 43.3132 112.762C41.6888 111.784 41.3639 111.523 41.3196 111.206C41.2457 110.752 41.1867 110.807 42.8702 109.871C45.1148 108.618 46.8722 107.792 47.3152 107.792C47.6696 107.792 48.0831 108.095 49.6042 109.485ZM82.2552 116.878C85.2678 117.222 87.793 117.883 90.1559 118.943C92.2381 119.879 93.0946 120.443 93.1537 120.884C93.198 121.2 93.1389 121.256 92.7106 121.324C92.4448 121.366 91.2634 121.558 90.082 121.751C84.0126 122.742 77.1456 122.894 71.0319 122.164C69.6142 121.999 65.0953 121.297 65.0363 121.228C65.0215 121.228 64.9624 121.077 64.9181 120.911C64.8295 120.664 64.9476 120.54 65.6713 120.099C68.2703 118.544 72.0656 117.332 75.7575 116.892C77.1456 116.726 80.808 116.713 82.2552 116.878Z" fill="#004040"/>
</g>
<defs>
<clipPath id="clip0_108_531">
<rect width="162" height="125" fill="white"/>
</clipPath>
</defs>
</svg>
